<svg width="17" height="17" viewBox="0 0 17 17" fill="none" xmlns="http://www.w3.org/2000/svg">
<path d="M16.0035 15.9296L11.8725 11.8647C12.9543 10.6894 13.6189 9.135 13.6189 7.42459C13.6184 3.76573 10.6047 0.800049 6.88685 0.800049C3.16898 0.800049 0.155273 3.76573 0.155273 7.42459C0.155273 11.0835 3.16898 14.0491 6.88685 14.0491C8.49323 14.0491 9.96656 13.4935 11.1239 12.5698L15.2708 16.6507C15.4729 16.8498 15.8009 16.8498 16.003 16.6507C16.2055 16.4517 16.2055 16.1286 16.0035 15.9296ZM6.88685 13.0299C3.74112 13.0299 1.19102 10.5203 1.19102 7.42459C1.19102 4.32885 3.74112 1.81927 6.88685 1.81927C10.0326 1.81927 12.5827 4.32885 12.5827 7.42459C12.5827 10.5203 10.0326 13.0299 6.88685 13.0299Z" fill="black"/>
</svg>
