<svg width="7" height="19" viewBox="0 0 7 19" fill="none" xmlns="http://www.w3.org/2000/svg">
<path d="M6.12142 9.96456C6.18059 10.0238 6.21017 10.092 6.21017 10.169C6.21017 10.2461 6.18059 10.3143 6.12142 10.3735L1.98567 14.5166C1.92651 14.5758 1.85846 14.6055 1.78155 14.6055C1.70463 14.6055 1.63659 14.5758 1.57742 14.5166L1.13367 14.072C1.07451 14.0128 1.04492 13.9446 1.04492 13.8675C1.04492 13.7905 1.07451 13.7223 1.13367 13.6631L4.62155 10.169L1.13367 6.67503C1.07451 6.61576 1.04492 6.5476 1.04492 6.47055C1.04492 6.39349 1.07451 6.32533 1.13367 6.26606L1.57742 5.82153C1.63659 5.76226 1.70463 5.73263 1.78155 5.73263C1.85846 5.73263 1.92651 5.76226 1.98567 5.82153L6.12142 9.96456Z" fill="#3E9172"/>
</svg>
