<svg width="23" height="25" viewBox="0 0 23 25" fill="none" xmlns="http://www.w3.org/2000/svg">
<path d="M4.27057 19.5685H7.46595V9.96403H4.27057V19.5685ZM7.67344 7.00243C7.66422 6.52267 7.49823 6.12594 7.17546 5.81225C6.8527 5.49856 6.42388 5.34171 5.88901 5.34171C5.35414 5.34171 4.91841 5.49856 4.58181 5.81225C4.24521 6.12594 4.07691 6.52267 4.07691 7.00243C4.07691 7.47296 4.2406 7.86738 4.56797 8.18569C4.89535 8.50399 5.32186 8.66314 5.84751 8.66314H5.86134C6.40544 8.66314 6.84347 8.50399 7.17546 8.18569C7.50745 7.86738 7.67344 7.47296 7.67344 7.00243ZM15.7657 19.5685H18.961V14.0605C18.961 12.6396 18.6244 11.5648 17.9512 10.8359C17.278 10.107 16.3881 9.74261 15.2815 9.74261C14.0273 9.74261 13.0636 10.2823 12.3904 11.3618H12.4181V9.96403H9.22272C9.25039 10.573 9.25039 13.7745 9.22272 19.5685H12.4181V14.1989C12.4181 13.8483 12.4504 13.5899 12.5149 13.4239C12.6533 13.1009 12.8608 12.8265 13.1374 12.6004C13.4141 12.3744 13.7553 12.2614 14.161 12.2614C15.2308 12.2614 15.7657 12.9856 15.7657 14.4341V19.5685ZM22.2394 5.75689V19.0426C22.2394 20.1405 21.8498 21.0793 21.0705 21.8589C20.2913 22.6385 19.353 23.0283 18.2556 23.0283H4.97604C3.87864 23.0283 2.94031 22.6385 2.16106 21.8589C1.38181 21.0793 0.992188 20.1405 0.992188 19.0426V5.75689C0.992188 4.65898 1.38181 3.72021 2.16106 2.9406C2.94031 2.16098 3.87864 1.77118 4.97604 1.77118H18.2556C19.353 1.77118 20.2913 2.16098 21.0705 2.9406C21.8498 3.72021 22.2394 4.65898 22.2394 5.75689Z" fill="#BBBBBB"/>
</svg>
