<svg width="24" height="24" viewBox="0 0 24 24" fill="none" xmlns="http://www.w3.org/2000/svg">
<path d="M20.2729 22.6814H15.3854C14.0557 22.6814 12.9775 21.6033 12.9775 20.2736V13.697C12.9775 13.3017 13.301 12.9783 13.6963 12.9783H20.2729C21.6025 12.9783 22.6807 14.0564 22.6807 15.3861V20.2736C22.6807 21.6033 21.6025 22.6814 20.2729 22.6814ZM14.415 14.4158V20.2736C14.415 20.8126 14.8463 21.2439 15.3854 21.2439H20.2729C20.8119 21.2439 21.2432 20.8126 21.2432 20.2736V15.3861C21.2432 14.847 20.8119 14.4158 20.2729 14.4158H14.415Z" fill="#777777"/>
<path d="M8.41348 22.6814H3.52598C2.19629 22.6814 1.11816 21.6033 1.11816 20.2736V15.3861C1.11816 14.0564 2.19629 12.9783 3.52598 12.9783H10.1025C10.4979 12.9783 10.8213 13.3017 10.8213 13.697V20.2736C10.8213 21.6033 9.74316 22.6814 8.41348 22.6814ZM3.52598 14.4158C2.98691 14.4158 2.55566 14.847 2.55566 15.3861V20.2736C2.55566 20.8126 2.98691 21.2439 3.52598 21.2439H8.41348C8.95254 21.2439 9.38379 20.8126 9.38379 20.2736V14.4158H3.52598Z" fill="#777777"/>
<path d="M20.2729 10.822H13.6963C13.301 10.822 12.9775 10.4986 12.9775 10.1033V3.52671C12.9775 2.19702 14.0557 1.1189 15.3854 1.1189H20.2729C21.6025 1.1189 22.6807 2.19702 22.6807 3.52671V8.41421C22.6807 9.7439 21.6025 10.822 20.2729 10.822ZM14.415 9.38452H20.2729C20.8119 9.38452 21.2432 8.95327 21.2432 8.41421V3.52671C21.2432 2.98765 20.8119 2.5564 20.2729 2.5564H15.3854C14.8463 2.5564 14.415 2.98765 14.415 3.52671V9.38452Z" fill="#777777"/>
<path d="M10.1025 10.822H3.52598C2.19629 10.822 1.11816 9.7439 1.11816 8.41421V3.52671C1.11816 2.19702 2.19629 1.1189 3.52598 1.1189H8.41348C9.74316 1.1189 10.8213 2.19702 10.8213 3.52671V10.1033C10.8213 10.4986 10.4979 10.822 10.1025 10.822ZM3.52598 2.5564C2.98691 2.5564 2.55566 2.98765 2.55566 3.52671V8.41421C2.55566 8.95327 2.98691 9.38452 3.52598 9.38452H9.38379V3.52671C9.38379 2.98765 8.95254 2.5564 8.41348 2.5564H3.52598Z" fill="#777777"/>
</svg>
