<svg width="23" height="25" viewBox="0 0 23 25" fill="none" xmlns="http://www.w3.org/2000/svg">
<path d="M13.8054 14.9047C13.8054 14.9047 13.9783 14.7317 14.3243 14.3857C14.6703 14.0397 14.8433 13.3777 14.8433 12.3997C14.8433 11.4218 14.4973 10.5868 13.8054 9.89484C13.1134 9.20287 12.2784 8.85689 11.3004 8.85689C10.3225 8.85689 9.4875 9.20287 8.79554 9.89484C8.10357 10.5868 7.75759 11.4218 7.75759 12.3997C7.75759 13.3777 8.10357 14.2127 8.79554 14.9047C9.4875 15.5966 10.3225 15.9426 11.3004 15.9426C12.2784 15.9426 13.1134 15.5966 13.8054 14.9047ZM15.1616 8.53859C15.1616 8.53859 15.4269 8.80384 15.9574 9.33435C16.4879 9.86485 16.7531 10.8867 16.7531 12.3997C16.7531 13.9128 16.2226 15.1999 15.1616 16.2609C14.1006 17.3219 12.8135 17.8524 11.3004 17.8524C9.78735 17.8524 8.5003 17.3219 7.43929 16.2609C6.37827 15.1999 5.84777 13.9128 5.84777 12.3997C5.84777 10.8867 6.37827 9.5996 7.43929 8.53859C8.5003 7.47758 9.78735 6.94707 11.3004 6.94707C12.8135 6.94707 14.1006 7.47758 15.1616 8.53859ZM17.8741 5.82609C17.8741 5.82609 17.9364 5.88836 18.0609 6.01292C18.1855 6.13747 18.2478 6.37505 18.2478 6.72564C18.2478 7.07624 18.1232 7.37609 17.8741 7.6252C17.625 7.8743 17.3251 7.99886 16.9746 7.99886C16.624 7.99886 16.3241 7.8743 16.075 7.6252C15.8259 7.37609 15.7013 7.07624 15.7013 6.72564C15.7013 6.37505 15.8259 6.0752 16.075 5.82609C16.3241 5.57698 16.624 5.45243 16.9746 5.45243C17.3251 5.45243 17.625 5.57698 17.8741 5.82609ZM12.3592 3.67408C12.3592 3.67408 12.1988 3.67523 11.8782 3.67754C11.5576 3.67985 11.365 3.681 11.3004 3.681C11.2359 3.681 10.883 3.67869 10.2417 3.67408C9.60052 3.66947 9.11384 3.66947 8.7817 3.67408C8.44955 3.67869 8.00439 3.69253 7.44621 3.7156C6.88802 3.73866 6.41287 3.78479 6.02076 3.85399C5.62865 3.92319 5.29881 4.00853 5.03125 4.11002C4.56994 4.29454 4.16399 4.5621 3.81339 4.91269C3.4628 5.26329 3.19524 5.66924 3.01071 6.13055C2.90923 6.39811 2.82388 6.72795 2.75469 7.12006C2.68549 7.51217 2.63936 7.98732 2.61629 8.54551C2.59323 9.10369 2.57939 9.54886 2.57478 9.881C2.57016 10.2131 2.57016 10.6998 2.57478 11.341C2.57939 11.9823 2.5817 12.3352 2.5817 12.3997C2.5817 12.4643 2.57939 12.8172 2.57478 13.4585C2.57016 14.0997 2.57016 14.5864 2.57478 14.9185C2.57939 15.2506 2.59323 15.6958 2.61629 16.254C2.63936 16.8122 2.68549 17.2873 2.75469 17.6794C2.82388 18.0715 2.90923 18.4014 3.01071 18.6689C3.19524 19.1303 3.4628 19.5362 3.81339 19.8868C4.16399 20.2374 4.56994 20.505 5.03125 20.6895C5.29881 20.791 5.62865 20.8763 6.02076 20.9455C6.41287 21.0147 6.88802 21.0608 7.44621 21.0839C8.00439 21.107 8.44955 21.1208 8.7817 21.1254C9.11384 21.13 9.60052 21.13 10.2417 21.1254C10.883 21.1208 11.2359 21.1185 11.3004 21.1185C11.365 21.1185 11.7179 21.1208 12.3592 21.1254C13.0004 21.13 13.4871 21.13 13.8192 21.1254C14.1513 21.1208 14.5965 21.107 15.1547 21.0839C15.7129 21.0608 16.188 21.0147 16.5801 20.9455C16.9722 20.8763 17.3021 20.791 17.5696 20.6895C18.031 20.505 18.4369 20.2374 18.7875 19.8868C19.1381 19.5362 19.4057 19.1303 19.5902 18.6689C19.6917 18.4014 19.777 18.0715 19.8462 17.6794C19.9154 17.2873 19.9615 16.8122 19.9846 16.254C20.0077 15.6958 20.0215 15.2506 20.0261 14.9185C20.0307 14.5864 20.0307 14.0997 20.0261 13.4585C20.0215 12.8172 20.0192 12.4643 20.0192 12.3997C20.0192 12.3352 20.0215 11.9823 20.0261 11.341C20.0307 10.6998 20.0307 10.2131 20.0261 9.881C20.0215 9.54886 20.0077 9.10369 19.9846 8.54551C19.9615 7.98732 19.9154 7.51217 19.8462 7.12006C19.777 6.72795 19.6917 6.39811 19.5902 6.13055C19.4057 5.66924 19.1381 5.26329 18.7875 4.91269C18.4369 4.5621 18.031 4.29454 17.5696 4.11002C17.3021 4.00853 16.9722 3.92319 16.5801 3.85399C16.188 3.78479 15.7129 3.73866 15.1547 3.7156C14.5965 3.69253 14.1513 3.67869 13.8192 3.67408C13.4871 3.66947 13.0004 3.66947 12.3592 3.67408ZM21.8598 8.0127C21.906 8.8246 21.929 10.287 21.929 12.3997C21.929 14.5125 21.906 15.9749 21.8598 16.7868C21.7676 18.7059 21.1955 20.1913 20.1437 21.2431C19.092 22.2948 17.6065 22.8669 15.6875 22.9591C14.8756 23.0053 13.4132 23.0283 11.3004 23.0283C9.18765 23.0283 7.7253 23.0053 6.91339 22.9591C4.99435 22.8669 3.50893 22.2948 2.45714 21.2431C1.40536 20.1913 0.833333 18.7059 0.741071 16.7868C0.69494 15.9749 0.671875 14.5125 0.671875 12.3997C0.671875 10.287 0.69494 8.8246 0.741071 8.0127C0.833333 6.09365 1.40536 4.60823 2.45714 3.55645C3.50893 2.50466 4.99435 1.93264 6.91339 1.84037C7.7253 1.79424 9.18765 1.77118 11.3004 1.77118C13.4132 1.77118 14.8756 1.79424 15.6875 1.84037C17.6065 1.93264 19.092 2.50466 20.1437 3.55645C21.1955 4.60823 21.7676 6.09365 21.8598 8.0127Z" fill="#BBBBBB"/>
</svg>
