<svg width="22" height="25" viewBox="0 0 22 25" fill="none" xmlns="http://www.w3.org/2000/svg">
<path d="M17.8232 1.77118C18.9211 1.77118 19.8599 2.16098 20.6395 2.9406C21.4191 3.72021 21.8089 4.65898 21.8089 5.75689V19.0426C21.8089 20.1405 21.4191 21.0793 20.6395 21.8589C19.8599 22.6385 18.9211 23.0283 17.8232 23.0283H15.2214V14.7939H17.9754L18.3906 11.5832H15.2214V9.53502C15.2214 9.01835 15.3298 8.63085 15.5466 8.37252C15.7634 8.11418 16.1855 7.98502 16.8129 7.98502L18.5013 7.97118V5.10645C17.9201 5.02341 17.0989 4.98189 16.0379 4.98189C14.7832 4.98189 13.7798 5.35094 13.0279 6.08904C12.2759 6.82713 11.9 7.86969 11.9 9.21671V11.5832H9.13212V14.7939H11.9V23.0283H4.53747C3.43956 23.0283 2.50079 22.6385 1.72118 21.8589C0.941564 21.0793 0.551758 20.1405 0.551758 19.0426V5.75689C0.551758 4.65898 0.941564 3.72021 1.72118 2.9406C2.50079 2.16098 3.43956 1.77118 4.53747 1.77118H17.8232Z" fill="#BBBBBB"/>
</svg>
