<svg width="25" height="24" viewBox="0 0 25 24" fill="none" xmlns="http://www.w3.org/2000/svg">
<path fill-rule="evenodd" clip-rule="evenodd" d="M20.539 4.00809C18.434 1.90063 15.6346 0.739517 12.6522 0.738281C6.5067 0.738281 1.50517 5.73967 1.5027 11.8868C1.50188 13.8518 2.01521 15.7701 2.99094 17.4608L1.40918 23.2383L7.31969 21.6878C8.94827 22.5762 10.7818 23.0444 12.6476 23.0449H12.6523C18.7971 23.0449 23.7992 18.0431 23.8015 11.8957C23.8027 8.9165 22.6441 6.1154 20.539 4.00809ZM12.6522 21.162H12.6483C10.9855 21.1613 9.35477 20.7144 7.93176 19.8703L7.59352 19.6694L4.08614 20.5895L5.02231 17.1698L4.8019 16.8192C3.87424 15.3438 3.38438 13.6384 3.38521 11.8875C3.38713 6.77815 7.54436 2.62134 12.6559 2.62134C15.1311 2.62216 17.4579 3.58731 19.2074 5.33894C20.957 7.09058 21.92 9.41885 21.9191 11.895C21.9169 17.0048 17.76 21.162 12.6522 21.162ZM17.7353 14.2215C17.4568 14.082 16.0871 13.4083 15.8316 13.3152C15.5765 13.2222 15.3905 13.1759 15.205 13.4547C15.0192 13.7335 14.4854 14.3611 14.3228 14.5469C14.1602 14.7328 13.9979 14.7561 13.7192 14.6166C13.4406 14.4772 12.543 14.1829 11.4788 13.2339C10.6507 12.4952 10.0917 11.5829 9.92908 11.3041C9.76675 11.0251 9.9277 10.8888 10.0513 10.7356C10.3529 10.3611 10.6549 9.96844 10.7477 9.78264C10.8407 9.59669 10.7941 9.43396 10.7243 9.29457C10.6549 9.15518 10.0977 7.78395 9.86563 7.22598C9.63931 6.68298 9.40984 6.75632 9.23872 6.7478C9.0764 6.7397 8.89059 6.73805 8.70479 6.73805C8.51912 6.73805 8.21727 6.80768 7.96184 7.08673C7.70654 7.36565 6.98694 8.03952 6.98694 9.41075C6.98694 10.782 7.98518 12.1067 8.12444 12.2926C8.26369 12.4785 10.0889 15.2924 12.8834 16.499C13.5481 16.7863 14.0669 16.9575 14.4716 17.0859C15.1391 17.298 15.7462 17.268 16.2263 17.1964C16.7616 17.1163 17.8744 16.5223 18.1068 15.8717C18.3388 15.2209 18.3388 14.6632 18.2691 14.5469C18.1996 14.4307 18.0138 14.3611 17.7353 14.2215Z" fill="#BBBBBB"/>
</svg>
