<svg width="17" height="17" viewBox="0 0 17 17" fill="none" xmlns="http://www.w3.org/2000/svg">
<path d="M16.6031 15.9296L12.4721 11.8647C13.5539 10.6894 14.2186 9.135 14.2186 7.42459C14.218 3.76573 11.2043 0.800049 7.48646 0.800049C3.76859 0.800049 0.754883 3.76573 0.754883 7.42459C0.754883 11.0835 3.76859 14.0491 7.48646 14.0491C9.09284 14.0491 10.5662 13.4935 11.7235 12.5698L15.8704 16.6507C16.0725 16.8498 16.4005 16.8498 16.6026 16.6507C16.8051 16.4517 16.8051 16.1286 16.6031 15.9296ZM7.48646 13.0299C4.34073 13.0299 1.79063 10.5203 1.79063 7.42459C1.79063 4.32885 4.34073 1.81927 7.48646 1.81927C10.6322 1.81927 13.1823 4.32885 13.1823 7.42459C13.1823 10.5203 10.6322 13.0299 7.48646 13.0299Z" fill="black"/>
</svg>
