<svg width="22" height="25" viewBox="0 0 22 25" fill="none" xmlns="http://www.w3.org/2000/svg">
<path d="M17.8227 1.77142C18.9206 1.77142 19.8594 2.16123 20.639 2.94084C21.4186 3.72045 21.8084 4.65922 21.8084 5.75714V19.0429C21.8084 20.1408 21.4186 21.0795 20.639 21.8591C19.8594 22.6388 18.9206 23.0286 17.8227 23.0286H15.2209V14.7942H17.9749L18.3901 11.5835H15.2209V9.53526C15.2209 9.01859 15.3293 8.63109 15.5461 8.37276C15.763 8.11443 16.185 7.98526 16.8124 7.98526L18.5008 7.97142V5.10669C17.9196 5.02365 17.0984 4.98214 16.0374 4.98214C14.7827 4.98214 13.7793 5.35118 13.0274 6.08928C12.2755 6.82737 11.8995 7.86993 11.8995 9.21696V11.5835H9.13163V14.7942H11.8995V23.0286H4.53698C3.43907 23.0286 2.5003 22.6388 1.72069 21.8591C0.941076 21.0795 0.55127 20.1408 0.55127 19.0429V5.75714C0.55127 4.65922 0.941076 3.72045 1.72069 2.94084C2.5003 2.16123 3.43907 1.77142 4.53698 1.77142H17.8227Z" fill="#BBBBBB"/>
</svg>
