<svg width="7" height="19" viewBox="0 0 7 19" fill="none" xmlns="http://www.w3.org/2000/svg">
<path d="M6.1224 9.96444C6.18156 10.0237 6.21115 10.0919 6.21115 10.1689C6.21115 10.246 6.18156 10.3141 6.1224 10.3734L1.98665 14.5164C1.92748 14.5757 1.85944 14.6053 1.78252 14.6053C1.70561 14.6053 1.63757 14.5757 1.5784 14.5164L1.13465 14.0719C1.07548 14.0126 1.0459 13.9445 1.0459 13.8674C1.0459 13.7904 1.07548 13.7222 1.13465 13.6629L4.62252 10.1689L1.13465 6.67491C1.07548 6.61564 1.0459 6.54748 1.0459 6.47042C1.0459 6.39337 1.07548 6.32521 1.13465 6.26594L1.5784 5.82141C1.63757 5.76214 1.70561 5.7325 1.78252 5.7325C1.85944 5.7325 1.92748 5.76214 1.98665 5.82141L6.1224 9.96444Z" fill="#3E9172"/>
</svg>
