<svg width="24" height="24" viewBox="0 0 24 24" fill="none" xmlns="http://www.w3.org/2000/svg">
<path d="M20.2733 22.6813H15.3858C14.0562 22.6813 12.978 21.6031 12.978 20.2735V13.6969C12.978 13.3016 13.3015 12.9781 13.6968 12.9781H20.2733C21.603 12.9781 22.6812 14.0563 22.6812 15.386V20.2735C22.6812 21.6031 21.603 22.6813 20.2733 22.6813ZM14.4155 14.4156V20.2735C14.4155 20.8125 14.8468 21.2438 15.3858 21.2438H20.2733C20.8124 21.2438 21.2437 20.8125 21.2437 20.2735V15.386C21.2437 14.8469 20.8124 14.4156 20.2733 14.4156H14.4155Z" fill="#777777"/>
<path d="M8.41396 22.6813H3.52646C2.19678 22.6813 1.11865 21.6031 1.11865 20.2735V15.386C1.11865 14.0563 2.19678 12.9781 3.52646 12.9781H10.103C10.4983 12.9781 10.8218 13.3016 10.8218 13.6969V20.2735C10.8218 21.6031 9.74365 22.6813 8.41396 22.6813ZM3.52646 14.4156C2.9874 14.4156 2.55615 14.8469 2.55615 15.386V20.2735C2.55615 20.8125 2.9874 21.2438 3.52646 21.2438H8.41396C8.95303 21.2438 9.38428 20.8125 9.38428 20.2735V14.4156H3.52646Z" fill="#777777"/>
<path d="M20.2733 10.8219H13.6968C13.3015 10.8219 12.978 10.4985 12.978 10.1031V3.52659C12.978 2.1969 14.0562 1.11877 15.3858 1.11877H20.2733C21.603 1.11877 22.6812 2.1969 22.6812 3.52659V8.41409C22.6812 9.74377 21.603 10.8219 20.2733 10.8219ZM14.4155 9.3844H20.2733C20.8124 9.3844 21.2437 8.95315 21.2437 8.41409V3.52659C21.2437 2.98752 20.8124 2.55627 20.2733 2.55627H15.3858C14.8468 2.55627 14.4155 2.98752 14.4155 3.52659V9.3844Z" fill="#777777"/>
<path d="M10.103 10.8219H3.52646C2.19678 10.8219 1.11865 9.74377 1.11865 8.41409V3.52659C1.11865 2.1969 2.19678 1.11877 3.52646 1.11877H8.41396C9.74365 1.11877 10.8218 2.1969 10.8218 3.52659V10.1031C10.8218 10.4985 10.4983 10.8219 10.103 10.8219ZM3.52646 2.55627C2.9874 2.55627 2.55615 2.98752 2.55615 3.52659V8.41409C2.55615 8.95315 2.9874 9.3844 3.52646 9.3844H9.38428V3.52659C9.38428 2.98752 8.95303 2.55627 8.41396 2.55627H3.52646Z" fill="#777777"/>
</svg>
