<svg width="30" height="30" viewBox="0 0 30 30" fill="none" xmlns="http://www.w3.org/2000/svg">
<path d="M12.4244 14.2695C14.3435 14.2695 16.0051 13.5811 17.3632 12.2231C18.7208 10.8653 19.4093 9.20389 19.4093 7.28453C19.4093 5.36583 18.721 3.70423 17.3629 2.34597C16.0049 0.988364 14.3433 0.300049 12.4244 0.300049C10.505 0.300049 8.84364 0.988364 7.48581 2.34619C6.12799 3.70401 5.43945 5.36561 5.43945 7.28453C5.43945 9.20389 6.12799 10.8655 7.48581 12.2233C8.84408 13.5809 10.5057 14.2695 12.4244 14.2695ZM8.68765 3.54781C9.72953 2.50593 10.9517 1.99949 12.4244 1.99949C13.8968 1.99949 15.1192 2.50593 16.1613 3.54781C17.2032 4.5899 17.7099 5.81232 17.7099 7.28453C17.7099 8.75719 17.2032 9.97938 16.1613 11.0215C15.1192 12.0636 13.8968 12.57 12.4244 12.57C10.9522 12.57 9.72997 12.0634 8.68765 11.0215C7.64556 9.9796 7.13889 8.75719 7.13889 7.28453C7.13889 5.81232 7.64556 4.5899 8.68765 3.54781Z" fill="black"/>
<path d="M24.6459 22.5995C24.6068 22.0344 24.5276 21.418 24.411 20.7671C24.2932 20.1113 24.1417 19.4914 23.9603 18.9247C23.7726 18.3391 23.518 17.7607 23.2027 17.2065C22.8759 16.6313 22.4918 16.1303 22.0608 15.7181C21.6101 15.2869 21.0583 14.9402 20.4202 14.6873C19.7844 14.4358 19.0797 14.3083 18.3259 14.3083C18.0298 14.3083 17.7435 14.4298 17.1906 14.7898C16.8503 15.0117 16.4523 15.2683 16.008 15.5522C15.6281 15.7943 15.1135 16.021 14.4778 16.2264C13.8577 16.427 13.228 16.5288 12.6063 16.5288C11.985 16.5288 11.3553 16.427 10.7347 16.2264C10.0997 16.0213 9.58486 15.7945 9.20563 15.5524C8.76556 15.2712 8.36731 15.0146 8.02193 14.7895C7.46947 14.4296 7.18317 14.3081 6.88713 14.3081C6.13311 14.3081 5.42864 14.4358 4.79298 14.6876C4.15533 14.94 3.60331 15.2867 3.15218 15.7184C2.72118 16.1308 2.33709 16.6315 2.01052 17.2065C1.69568 17.7607 1.44079 18.3389 1.25317 18.925C1.07197 19.4916 0.920409 20.1113 0.802703 20.7671C0.685882 21.4172 0.606895 22.0338 0.567734 22.6002C0.529236 23.154 0.509766 23.7303 0.509766 24.3127C0.509766 25.8265 0.990989 27.052 1.93994 27.9558C2.87716 28.8477 4.11706 29.2999 5.62533 29.2999H19.589C21.0968 29.2999 22.3367 28.8477 23.2742 27.9558C24.2233 27.0527 24.7046 25.8267 24.7046 24.3125C24.7043 23.7281 24.6846 23.1518 24.6459 22.5995ZM22.1024 26.7245C21.4831 27.314 20.661 27.6005 19.5888 27.6005H5.62533C4.55292 27.6005 3.73075 27.314 3.11169 26.7248C2.50435 26.1466 2.2092 25.3574 2.2092 24.3127C2.2092 23.7693 2.22712 23.2327 2.26297 22.7177C2.29792 22.2123 2.36939 21.6572 2.47537 21.0674C2.58002 20.4848 2.71321 19.9381 2.87163 19.4431C3.02363 18.9686 3.23094 18.4986 3.48804 18.0459C3.73341 17.6145 4.01572 17.2443 4.32725 16.9461C4.61864 16.6671 4.98591 16.4388 5.41868 16.2675C5.81893 16.1091 6.26873 16.0224 6.75704 16.0093C6.81655 16.041 6.92253 16.1014 7.09423 16.2133C7.44358 16.441 7.84626 16.7007 8.29142 16.985C8.79322 17.305 9.43972 17.5939 10.2121 17.8433C11.0018 18.0986 11.8071 18.2282 12.6065 18.2282C13.4059 18.2282 14.2115 18.0986 15.0007 17.8435C15.7737 17.5937 16.42 17.305 16.9225 16.9846C17.378 16.6934 17.7694 16.4412 18.1188 16.2133C18.2905 16.1016 18.3964 16.041 18.456 16.0093C18.9445 16.0224 19.3943 16.1091 19.7948 16.2675C20.2273 16.4388 20.5946 16.6673 20.886 16.9461C21.1975 17.2441 21.4798 17.6143 21.7252 18.0462C21.9825 18.4986 22.19 18.9688 22.3418 19.4429C22.5004 19.9385 22.6339 20.485 22.7383 21.0671C22.844 21.6581 22.9157 22.2134 22.9507 22.7179V22.7183C22.9868 23.2314 23.0049 23.7677 23.0051 24.3127C23.0049 25.3577 22.7097 26.1466 22.1024 26.7245Z" fill="black"/>
</svg>
