<svg width="12" height="20" viewBox="0 0 12 20" fill="none" xmlns="http://www.w3.org/2000/svg">
<path d="M6.94424 10.2213C7.01271 10.2898 7.04694 10.3685 7.04694 10.4575C7.04694 10.5465 7.01271 10.6253 6.94424 10.6937L2.15804 15.4799C2.08957 15.5484 2.01083 15.5826 1.92181 15.5826C1.8328 15.5826 1.75406 15.5484 1.68558 15.4799L1.17204 14.9664C1.10357 14.8979 1.06934 14.8192 1.06934 14.7302C1.06934 14.6412 1.10357 14.5624 1.17204 14.4939L5.20847 10.4575L1.17204 6.42108C1.10357 6.35261 1.06934 6.27387 1.06934 6.18486C1.06934 6.09584 1.10357 6.0171 1.17204 5.94863L1.68558 5.43509C1.75406 5.36662 1.8328 5.33238 1.92181 5.33238C2.01083 5.33238 2.08957 5.36662 2.15804 5.43509L6.94424 10.2213ZM10.8882 10.2213C10.9567 10.2898 10.9909 10.3685 10.9909 10.4575C10.9909 10.5465 10.9567 10.6253 10.8882 10.6937L6.10203 15.4799C6.03356 15.5484 5.95481 15.5826 5.8658 15.5826C5.77679 15.5826 5.69804 15.5484 5.62957 15.4799L5.11603 14.9664C5.04756 14.8979 5.01332 14.8192 5.01332 14.7302C5.01332 14.6412 5.04756 14.5624 5.11603 14.4939L9.15246 10.4575L5.11603 6.42108C5.04756 6.35261 5.01332 6.27387 5.01332 6.18486C5.01332 6.09584 5.04756 6.0171 5.11603 5.94863L5.62957 5.43509C5.69804 5.36662 5.77679 5.33238 5.8658 5.33238C5.95481 5.33238 6.03356 5.36662 6.10203 5.43509L10.8882 10.2213Z" fill="#BBBBBB"/>
</svg>
