<svg width="23" height="25" viewBox="0 0 23 25" fill="none" xmlns="http://www.w3.org/2000/svg">
<path d="M4.26959 19.5687H7.46498V9.96428H4.26959V19.5687ZM7.67247 7.00267C7.66325 6.52291 7.49725 6.12618 7.17449 5.81249C6.85172 5.4988 6.4229 5.34196 5.88803 5.34196C5.35316 5.34196 4.91743 5.4988 4.58083 5.81249C4.24423 6.12618 4.07593 6.52291 4.07593 7.00267C4.07593 7.47321 4.23962 7.86763 4.567 8.18593C4.89437 8.50423 5.32089 8.66339 5.84653 8.66339H5.86037C6.40446 8.66339 6.8425 8.50423 7.17449 8.18593C7.50647 7.86763 7.67247 7.47321 7.67247 7.00267ZM15.7647 19.5687H18.9601V14.0607C18.9601 12.6399 18.6235 11.565 17.9503 10.8362C17.2771 10.1073 16.3872 9.74285 15.2805 9.74285C14.0263 9.74285 13.0627 10.2826 12.3895 11.362H12.4171V9.96428H9.22175C9.24941 10.5732 9.24941 13.7747 9.22175 19.5687H12.4171V14.1991C12.4171 13.8485 12.4494 13.5902 12.514 13.4241C12.6523 13.1012 12.8598 12.8267 13.1364 12.6007C13.4131 12.3746 13.7543 12.2616 14.1601 12.2616C15.2298 12.2616 15.7647 12.9859 15.7647 14.4344V19.5687ZM22.2384 5.75714V19.0429C22.2384 20.1408 21.8488 21.0795 21.0696 21.8591C20.2903 22.6388 19.352 23.0286 18.2546 23.0286H4.97507C3.87766 23.0286 2.93933 22.6388 2.16009 21.8591C1.38084 21.0795 0.991211 20.1408 0.991211 19.0429V5.75714C0.991211 4.65922 1.38084 3.72045 2.16009 2.94084C2.93933 2.16123 3.87766 1.77142 4.97507 1.77142H18.2546C19.352 1.77142 20.2903 2.16123 21.0696 2.94084C21.8488 3.72045 22.2384 4.65922 22.2384 5.75714Z" fill="#BBBBBB"/>
</svg>
