<svg width="10" height="16" viewBox="0 0 10 16" fill="none" xmlns="http://www.w3.org/2000/svg">
<path d="M8.77962 6.52948C8.83319 6.58305 8.85998 6.64466 8.85998 6.7143C8.85998 6.78394 8.83319 6.84555 8.77962 6.89912L5.03498 10.6438C4.9814 10.6973 4.9198 10.7241 4.85015 10.7241C4.78051 10.7241 4.7189 10.6973 4.66533 10.6438L0.920689 6.89912C0.867118 6.84555 0.840332 6.78394 0.840332 6.7143C0.840332 6.64466 0.867118 6.58305 0.920689 6.52948L1.32247 6.12769C1.37605 6.07412 1.43765 6.04734 1.5073 6.04734C1.57694 6.04734 1.63855 6.07412 1.69212 6.12769L4.85015 9.28573L8.00819 6.12769C8.06176 6.07412 8.12337 6.04734 8.19301 6.04734C8.26265 6.04734 8.32426 6.07412 8.37783 6.12769L8.77962 6.52948Z" fill="#777777"/>
</svg>
