<svg width="11" height="12" viewBox="0 0 11 12" fill="none" xmlns="http://www.w3.org/2000/svg">
<path d="M10.7712 4.18845C10.7712 4.28262 10.7155 4.38535 10.6042 4.49664L8.27357 6.7695L8.82573 9.97976C8.83001 10.0097 8.83215 10.0525 8.83215 10.1082C8.83215 10.1981 8.80968 10.274 8.76474 10.3361C8.7198 10.3982 8.65452 10.4292 8.56891 10.4292C8.48759 10.4292 8.40198 10.4035 8.31209 10.3522L5.42928 8.83691L2.54646 10.3522C2.4523 10.4035 2.36669 10.4292 2.28964 10.4292C2.19975 10.4292 2.13234 10.3982 2.0874 10.3361C2.04245 10.274 2.01998 10.1981 2.01998 10.1082C2.01998 10.0825 2.02426 10.0397 2.03282 9.97976L2.58499 6.7695L0.247915 4.49664C0.140907 4.38107 0.0874023 4.27834 0.0874023 4.18845C0.0874023 4.03008 0.207252 3.93163 0.446952 3.89311L3.67005 3.42441L5.11467 0.503071C5.196 0.327577 5.30087 0.239829 5.42928 0.239829C5.55769 0.239829 5.66256 0.327577 5.74388 0.503071L7.1885 3.42441L10.4116 3.89311C10.6513 3.93163 10.7712 4.03008 10.7712 4.18845Z" fill="#777777"/>
</svg>
