<svg width="26" height="25" viewBox="0 0 26 25" fill="none" xmlns="http://www.w3.org/2000/svg">
<path d="M13.0801 0C8.23379 0 4.29102 3.94277 4.29102 8.78906C4.29102 10.4265 4.74458 12.0244 5.60298 13.4107L12.5798 24.6538C12.7134 24.8691 12.9489 25 13.2021 25C13.2041 25 13.206 25 13.2079 25C13.4633 24.998 13.6993 24.8631 13.8305 24.6439L20.6294 13.292C21.4405 11.935 21.8691 10.3779 21.8691 8.78906C21.8691 3.94277 17.9264 0 13.0801 0ZM19.3724 12.5399L13.191 22.8606L6.848 12.639C6.1335 11.4851 5.74609 10.1538 5.74609 8.78906C5.74609 4.75049 9.0415 1.45508 13.0801 1.45508C17.1187 1.45508 20.4092 4.75049 20.4092 8.78906C20.4092 10.1133 20.0473 11.4105 19.3724 12.5399Z" fill="#BBBBBB"/>
<path d="M13.0801 4.39453C10.6569 4.39453 8.68555 6.36592 8.68555 8.78906C8.68555 11.1967 10.6249 13.1836 13.0801 13.1836C15.5656 13.1836 17.4746 11.1703 17.4746 8.78906C17.4746 6.36592 15.5032 4.39453 13.0801 4.39453ZM13.0801 11.7285C11.4562 11.7285 10.1406 10.4085 10.1406 8.78906C10.1406 7.17363 11.4646 5.84961 13.0801 5.84961C14.6955 5.84961 16.0146 7.17363 16.0146 8.78906C16.0146 10.3849 14.7297 11.7285 13.0801 11.7285Z" fill="#BBBBBB"/>
</svg>
