<svg width="12" height="12" viewBox="0 0 12 12" fill="none" xmlns="http://www.w3.org/2000/svg">
<path d="M11.1234 4.18718C11.1234 4.28142 11.0677 4.38423 10.9564 4.4956L8.62395 6.77017L9.17653 9.98284C9.18082 10.0128 9.18296 10.0557 9.18296 10.1114C9.18296 10.2013 9.16047 10.2773 9.11549 10.3394C9.07051 10.4016 9.00519 10.4326 8.91952 10.4326C8.83813 10.4326 8.75246 10.4069 8.66251 10.3555L5.77753 8.83913L2.89255 10.3555C2.79831 10.4069 2.71264 10.4326 2.63553 10.4326C2.54558 10.4326 2.47811 10.4016 2.43314 10.3394C2.38816 10.2773 2.36567 10.2013 2.36567 10.1114C2.36567 10.0856 2.36995 10.0428 2.37852 9.98284L2.9311 6.77017L0.592274 4.4956C0.485185 4.37994 0.431641 4.27714 0.431641 4.18718C0.431641 4.02869 0.55158 3.93017 0.79146 3.89162L4.01698 3.42257L5.46268 0.499037C5.54407 0.323411 5.64902 0.235598 5.77753 0.235598C5.90603 0.235598 6.01098 0.323411 6.09237 0.499037L7.53807 3.42257L10.7636 3.89162C11.0035 3.93017 11.1234 4.02869 11.1234 4.18718Z" fill="#777777"/>
</svg>
