<svg width="12" height="12" viewBox="0 0 12 12" fill="none" xmlns="http://www.w3.org/2000/svg">
<path d="M11.2716 4.18845C11.2716 4.28262 11.216 4.38535 11.1047 4.49664L8.77406 6.7695L9.32622 9.97976C9.3305 10.0097 9.33264 10.0525 9.33264 10.1082C9.33264 10.1981 9.31017 10.274 9.26523 10.3361C9.22028 10.3982 9.15501 10.4292 9.0694 10.4292C8.98808 10.4292 8.90247 10.4035 8.81258 10.3522L5.92977 8.83691L3.04695 10.3522C2.95278 10.4035 2.86718 10.4292 2.79013 10.4292C2.70024 10.4292 2.63283 10.3982 2.58788 10.3361C2.54294 10.274 2.52047 10.1981 2.52047 10.1082C2.52047 10.0825 2.52475 10.0397 2.53331 9.97976L3.08547 6.7695L0.748404 4.49664C0.641395 4.38107 0.587891 4.27834 0.587891 4.18845C0.587891 4.03008 0.70774 3.93163 0.94744 3.89311L4.17054 3.42441L5.61516 0.503071C5.69649 0.327577 5.80136 0.239829 5.92977 0.239829C6.05818 0.239829 6.16304 0.327577 6.24437 0.503071L7.68899 3.42441L10.9121 3.89311C11.1518 3.93163 11.2716 4.03008 11.2716 4.18845Z" fill="#777777"/>
</svg>
