<svg width="12" height="12" viewBox="0 0 12 12" fill="none" xmlns="http://www.w3.org/2000/svg">
<path d="M11.1229 4.18718C11.1229 4.28142 11.0672 4.38423 10.9559 4.4956L8.62347 6.77017L9.17604 9.98284C9.18033 10.0128 9.18247 10.0557 9.18247 10.1114C9.18247 10.2013 9.15998 10.2773 9.115 10.3394C9.07003 10.4016 9.0047 10.4326 8.91903 10.4326C8.83764 10.4326 8.75197 10.4069 8.66202 10.3555L5.77704 8.83913L2.89206 10.3555C2.79782 10.4069 2.71215 10.4326 2.63505 10.4326C2.54509 10.4326 2.47762 10.4016 2.43265 10.3394C2.38767 10.2773 2.36518 10.2013 2.36518 10.1114C2.36518 10.0856 2.36946 10.0428 2.37803 9.98284L2.93061 6.77017L0.591786 4.4956C0.484697 4.37994 0.431152 4.27714 0.431152 4.18718C0.431152 4.02869 0.551092 3.93017 0.790972 3.89162L4.01649 3.42257L5.4622 0.499037C5.54358 0.323411 5.64853 0.235598 5.77704 0.235598C5.90554 0.235598 6.01049 0.323411 6.09188 0.499037L7.53758 3.42257L10.7631 3.89162C11.003 3.93017 11.1229 4.02869 11.1229 4.18718Z" fill="#777777"/>
</svg>
