<svg width="17" height="28" viewBox="0 0 17 28" fill="none" xmlns="http://www.w3.org/2000/svg">
<path d="M9.63788 14.8092C9.73667 14.9079 9.78607 15.0216 9.78607 15.15C9.78607 15.2784 9.73667 15.3921 9.63788 15.4908L2.732 22.3967C2.6332 22.4955 2.51959 22.5449 2.39115 22.5449C2.26271 22.5449 2.1491 22.4955 2.0503 22.3967L1.30933 21.6558C1.21053 21.557 1.16113 21.4433 1.16113 21.3149C1.16113 21.1865 1.21053 21.0729 1.30933 20.9741L7.13338 15.15L1.30933 9.32594C1.21053 9.22715 1.16113 9.11353 1.16113 8.9851C1.16113 8.85666 1.21053 8.74304 1.30933 8.64425L2.0503 7.90327C2.1491 7.80448 2.26271 7.75508 2.39115 7.75508C2.51959 7.75508 2.6332 7.80448 2.732 7.90327L9.63788 14.8092ZM15.3286 14.8092C15.4274 14.9079 15.4768 15.0216 15.4768 15.15C15.4768 15.2784 15.4274 15.3921 15.3286 15.4908L8.42268 22.3967C8.32388 22.4955 8.21027 22.5449 8.08183 22.5449C7.9534 22.5449 7.83978 22.4955 7.74098 22.3967L7.00001 21.6558C6.90121 21.557 6.85181 21.4433 6.85181 21.3149C6.85181 21.1865 6.90121 21.0729 7.00001 20.9741L12.8241 15.15L7.00001 9.32594C6.90121 9.22715 6.85181 9.11353 6.85181 8.9851C6.85181 8.85666 6.90121 8.74304 7.00001 8.64425L7.74098 7.90327C7.83978 7.80448 7.9534 7.75508 8.08183 7.75508C8.21027 7.75508 8.32388 7.80448 8.42268 7.90327L15.3286 14.8092Z" fill="white"/>
</svg>
