<svg width="11" height="12" viewBox="0 0 11 12" fill="none" xmlns="http://www.w3.org/2000/svg">
<path d="M10.9994 4.18845C10.9994 4.28262 10.9437 4.38535 10.8323 4.49664L8.49993 6.7695L9.05251 9.97976C9.05679 10.0097 9.05894 10.0525 9.05894 10.1082C9.05894 10.1981 9.03645 10.274 8.99147 10.3361C8.94649 10.3982 8.88117 10.4292 8.7955 10.4292C8.71411 10.4292 8.62844 10.4035 8.53848 10.3522L5.6535 8.83691L2.76852 10.3522C2.67429 10.4035 2.58861 10.4292 2.51151 10.4292C2.42156 10.4292 2.35409 10.3982 2.30911 10.3361C2.26413 10.274 2.24165 10.1981 2.24165 10.1082C2.24165 10.0825 2.24593 10.0397 2.2545 9.97976L2.80708 6.7695L0.468251 4.49664C0.361162 4.38107 0.307617 4.27834 0.307617 4.18845C0.307617 4.03008 0.427557 3.93163 0.667436 3.89311L3.89296 3.42441L5.33866 0.503071C5.42005 0.327577 5.525 0.239829 5.6535 0.239829C5.78201 0.239829 5.88696 0.327577 5.96834 0.503071L7.41405 3.42441L10.6396 3.89311C10.8794 3.93163 10.9994 4.03008 10.9994 4.18845Z" fill="#F27D0C"/>
</svg>
