<svg width="12" height="12" viewBox="0 0 12 12" fill="none" xmlns="http://www.w3.org/2000/svg">
<path d="M11.5851 4.18845C11.5851 4.28262 11.5295 4.38535 11.4182 4.49664L9.08753 6.7695L9.6397 9.97976C9.64398 10.0097 9.64612 10.0525 9.64612 10.1082C9.64612 10.1981 9.62365 10.274 9.5787 10.3361C9.53376 10.3982 9.46848 10.4292 9.38288 10.4292C9.30155 10.4292 9.21594 10.4035 9.12606 10.3522L6.24324 8.83691L3.36043 10.3522C3.26626 10.4035 3.18065 10.4292 3.10361 10.4292C3.01372 10.4292 2.9463 10.3982 2.90136 10.3361C2.85642 10.274 2.83394 10.1981 2.83394 10.1082C2.83394 10.0825 2.83822 10.0397 2.84679 9.97976L3.39895 6.7695L1.06188 4.49664C0.954872 4.38107 0.901367 4.27834 0.901367 4.18845C0.901367 4.03008 1.02122 3.93163 1.26092 3.89311L4.48402 3.42441L5.92864 0.503071C6.00996 0.327577 6.11483 0.239829 6.24324 0.239829C6.37165 0.239829 6.47652 0.327577 6.55785 0.503071L8.00247 3.42441L11.2256 3.89311C11.4653 3.93163 11.5851 4.03008 11.5851 4.18845Z" fill="#F27D0C"/>
</svg>
