<svg width="12" height="12" viewBox="0 0 12 12" fill="none" xmlns="http://www.w3.org/2000/svg">
<path d="M11.2712 4.18845C11.2712 4.28262 11.2155 4.38535 11.1042 4.49664L8.77357 6.7695L9.32573 9.97976C9.33001 10.0097 9.33215 10.0525 9.33215 10.1082C9.33215 10.1981 9.30968 10.274 9.26474 10.3361C9.2198 10.3982 9.15452 10.4292 9.06891 10.4292C8.98759 10.4292 8.90198 10.4035 8.81209 10.3522L5.92928 8.83691L3.04646 10.3522C2.9523 10.4035 2.86669 10.4292 2.78964 10.4292C2.69975 10.4292 2.63234 10.3982 2.5874 10.3361C2.54245 10.274 2.51998 10.1981 2.51998 10.1082C2.51998 10.0825 2.52426 10.0397 2.53282 9.97976L3.08499 6.7695L0.747915 4.49664C0.640907 4.38107 0.587402 4.27834 0.587402 4.18845C0.587402 4.03008 0.707252 3.93163 0.946952 3.89311L4.17005 3.42441L5.61467 0.503071C5.696 0.327577 5.80087 0.239829 5.92928 0.239829C6.05769 0.239829 6.16256 0.327577 6.24388 0.503071L7.6885 3.42441L10.9116 3.89311C11.1513 3.93163 11.2712 4.03008 11.2712 4.18845Z" fill="#777777"/>
</svg>
