<svg width="12" height="12" viewBox="0 0 12 12" fill="none" xmlns="http://www.w3.org/2000/svg">
<path d="M11.6234 4.18718C11.6234 4.28142 11.5677 4.38423 11.4564 4.4956L9.12395 6.77017L9.67653 9.98284C9.68082 10.0128 9.68296 10.0557 9.68296 10.1114C9.68296 10.2013 9.66047 10.2773 9.61549 10.3394C9.57051 10.4016 9.50519 10.4326 9.41952 10.4326C9.33813 10.4326 9.25246 10.4069 9.16251 10.3555L6.27753 8.83913L3.39255 10.3555C3.29831 10.4069 3.21264 10.4326 3.13553 10.4326C3.04558 10.4326 2.97811 10.4016 2.93314 10.3394C2.88816 10.2773 2.86567 10.2013 2.86567 10.1114C2.86567 10.0856 2.86995 10.0428 2.87852 9.98284L3.4311 6.77017L1.09227 4.4956C0.985185 4.37994 0.931641 4.27714 0.931641 4.18718C0.931641 4.02869 1.05158 3.93017 1.29146 3.89162L4.51698 3.42257L5.96268 0.499037C6.04407 0.323411 6.14902 0.235598 6.27753 0.235598C6.40603 0.235598 6.51098 0.323411 6.59237 0.499037L8.03807 3.42257L11.2636 3.89162C11.5035 3.93017 11.6234 4.02869 11.6234 4.18718Z" fill="#777777"/>
</svg>
