<svg width="12" height="12" viewBox="0 0 12 12" fill="none" xmlns="http://www.w3.org/2000/svg">
<path d="M11.5216 4.18845C11.5216 4.28262 11.466 4.38535 11.3547 4.49664L9.02406 6.7695L9.57622 9.97976C9.5805 10.0097 9.58264 10.0525 9.58264 10.1082C9.58264 10.1981 9.56017 10.274 9.51523 10.3361C9.47028 10.3982 9.40501 10.4292 9.3194 10.4292C9.23808 10.4292 9.15247 10.4035 9.06258 10.3522L6.17977 8.83691L3.29695 10.3522C3.20278 10.4035 3.11718 10.4292 3.04013 10.4292C2.95024 10.4292 2.88283 10.3982 2.83788 10.3361C2.79294 10.274 2.77047 10.1981 2.77047 10.1082C2.77047 10.0825 2.77475 10.0397 2.78331 9.97976L3.33547 6.7695L0.998404 4.49664C0.891395 4.38107 0.837891 4.27834 0.837891 4.18845C0.837891 4.03008 0.95774 3.93163 1.19744 3.89311L4.42054 3.42441L5.86516 0.503071C5.94649 0.327577 6.05136 0.239829 6.17977 0.239829C6.30818 0.239829 6.41304 0.327577 6.49437 0.503071L7.93899 3.42441L11.1621 3.89311C11.4018 3.93163 11.5216 4.03008 11.5216 4.18845Z" fill="#777777"/>
</svg>
