<svg width="24" height="24" viewBox="0 0 24 24" fill="none" xmlns="http://www.w3.org/2000/svg">
<path d="M20.2733 22.6814H15.3858C14.0562 22.6814 12.978 21.6033 12.978 20.2736V13.697C12.978 13.3017 13.3015 12.9783 13.6968 12.9783H20.2733C21.603 12.9783 22.6812 14.0564 22.6812 15.3861V20.2736C22.6812 21.6033 21.603 22.6814 20.2733 22.6814ZM14.4155 14.4158V20.2736C14.4155 20.8126 14.8468 21.2439 15.3858 21.2439H20.2733C20.8124 21.2439 21.2437 20.8126 21.2437 20.2736V15.3861C21.2437 14.847 20.8124 14.4158 20.2733 14.4158H14.4155Z" fill="#777777"/>
<path d="M8.41396 22.6814H3.52646C2.19678 22.6814 1.11865 21.6033 1.11865 20.2736V15.3861C1.11865 14.0564 2.19678 12.9783 3.52646 12.9783H10.103C10.4983 12.9783 10.8218 13.3017 10.8218 13.697V20.2736C10.8218 21.6033 9.74365 22.6814 8.41396 22.6814ZM3.52646 14.4158C2.9874 14.4158 2.55615 14.847 2.55615 15.3861V20.2736C2.55615 20.8126 2.9874 21.2439 3.52646 21.2439H8.41396C8.95303 21.2439 9.38428 20.8126 9.38428 20.2736V14.4158H3.52646Z" fill="#777777"/>
<path d="M20.2733 10.822H13.6968C13.3015 10.822 12.978 10.4986 12.978 10.1033V3.52671C12.978 2.19702 14.0562 1.1189 15.3858 1.1189H20.2733C21.603 1.1189 22.6812 2.19702 22.6812 3.52671V8.41421C22.6812 9.7439 21.603 10.822 20.2733 10.822ZM14.4155 9.38452H20.2733C20.8124 9.38452 21.2437 8.95327 21.2437 8.41421V3.52671C21.2437 2.98765 20.8124 2.5564 20.2733 2.5564H15.3858C14.8468 2.5564 14.4155 2.98765 14.4155 3.52671V9.38452Z" fill="#777777"/>
<path d="M10.103 10.822H3.52646C2.19678 10.822 1.11865 9.7439 1.11865 8.41421V3.52671C1.11865 2.19702 2.19678 1.1189 3.52646 1.1189H8.41396C9.74365 1.1189 10.8218 2.19702 10.8218 3.52671V10.1033C10.8218 10.4986 10.4983 10.822 10.103 10.822ZM3.52646 2.5564C2.9874 2.5564 2.55615 2.98765 2.55615 3.52671V8.41421C2.55615 8.95327 2.9874 9.38452 3.52646 9.38452H9.38428V3.52671C9.38428 2.98765 8.95303 2.5564 8.41396 2.5564H3.52646Z" fill="#777777"/>
</svg>
