<svg width="12" height="12" viewBox="0 0 12 12" fill="none" xmlns="http://www.w3.org/2000/svg">
<path d="M11.3734 4.18718C11.3734 4.28142 11.3177 4.38423 11.2064 4.4956L8.87395 6.77017L9.42653 9.98284C9.43082 10.0128 9.43296 10.0557 9.43296 10.1114C9.43296 10.2013 9.41047 10.2773 9.36549 10.3394C9.32051 10.4016 9.25519 10.4326 9.16952 10.4326C9.08813 10.4326 9.00246 10.4069 8.91251 10.3555L6.02753 8.83913L3.14255 10.3555C3.04831 10.4069 2.96264 10.4326 2.88553 10.4326C2.79558 10.4326 2.72811 10.4016 2.68314 10.3394C2.63816 10.2773 2.61567 10.2013 2.61567 10.1114C2.61567 10.0856 2.61995 10.0428 2.62852 9.98284L3.1811 6.77017L0.842274 4.4956C0.735185 4.37994 0.681641 4.27714 0.681641 4.18718C0.681641 4.02869 0.80158 3.93017 1.04146 3.89162L4.26698 3.42257L5.71268 0.499037C5.79407 0.323411 5.89902 0.235598 6.02753 0.235598C6.15603 0.235598 6.26098 0.323411 6.34237 0.499037L7.78807 3.42257L11.0136 3.89162C11.2535 3.93017 11.3734 4.02869 11.3734 4.18718Z" fill="#777777"/>
</svg>
