<svg width="12" height="12" viewBox="0 0 12 12" fill="none" xmlns="http://www.w3.org/2000/svg">
<path d="M11.0216 4.18845C11.0216 4.28262 10.966 4.38535 10.8547 4.49664L8.52406 6.7695L9.07622 9.97976C9.0805 10.0097 9.08264 10.0525 9.08264 10.1082C9.08264 10.1981 9.06017 10.274 9.01523 10.3361C8.97028 10.3982 8.90501 10.4292 8.8194 10.4292C8.73808 10.4292 8.65247 10.4035 8.56258 10.3522L5.67977 8.83691L2.79695 10.3522C2.70278 10.4035 2.61718 10.4292 2.54013 10.4292C2.45024 10.4292 2.38283 10.3982 2.33788 10.3361C2.29294 10.274 2.27047 10.1981 2.27047 10.1082C2.27047 10.0825 2.27475 10.0397 2.28331 9.97976L2.83547 6.7695L0.498404 4.49664C0.391395 4.38107 0.337891 4.27834 0.337891 4.18845C0.337891 4.03008 0.45774 3.93163 0.69744 3.89311L3.92054 3.42441L5.36516 0.503071C5.44649 0.327577 5.55136 0.239829 5.67977 0.239829C5.80818 0.239829 5.91304 0.327577 5.99437 0.503071L7.43899 3.42441L10.6621 3.89311C10.9018 3.93163 11.0216 4.03008 11.0216 4.18845Z" fill="#777777"/>
</svg>
