<svg width="17" height="17" viewBox="0 0 17 17" fill="none" xmlns="http://www.w3.org/2000/svg">
<path d="M16.0025 15.9296L11.8715 11.8647C12.9533 10.6894 13.618 9.135 13.618 7.42459C13.6174 3.76573 10.6037 0.800049 6.88587 0.800049C3.168 0.800049 0.154297 3.76573 0.154297 7.42459C0.154297 11.0835 3.168 14.0491 6.88587 14.0491C8.49225 14.0491 9.96559 13.4935 11.1229 12.5698L15.2698 16.6507C15.4719 16.8498 15.7999 16.8498 16.002 16.6507C16.2045 16.4517 16.2045 16.1286 16.0025 15.9296ZM6.88587 13.0299C3.74015 13.0299 1.19004 10.5203 1.19004 7.42459C1.19004 4.32885 3.74015 1.81927 6.88587 1.81927C10.0316 1.81927 12.5817 4.32885 12.5817 7.42459C12.5817 10.5203 10.0316 13.0299 6.88587 13.0299Z" fill="black"/>
</svg>
