<svg width="11" height="12" viewBox="0 0 11 12" fill="none" xmlns="http://www.w3.org/2000/svg">
<path d="M10.8729 4.18718C10.8729 4.28142 10.8172 4.38423 10.7059 4.4956L8.37347 6.77017L8.92604 9.98284C8.93033 10.0128 8.93247 10.0557 8.93247 10.1114C8.93247 10.2013 8.90998 10.2773 8.865 10.3394C8.82003 10.4016 8.7547 10.4326 8.66903 10.4326C8.58764 10.4326 8.50197 10.4069 8.41202 10.3555L5.52704 8.83913L2.64206 10.3555C2.54782 10.4069 2.46215 10.4326 2.38505 10.4326C2.29509 10.4326 2.22762 10.4016 2.18265 10.3394C2.13767 10.2773 2.11518 10.2013 2.11518 10.1114C2.11518 10.0856 2.11946 10.0428 2.12803 9.98284L2.68061 6.77017L0.341786 4.4956C0.234697 4.37994 0.181152 4.27714 0.181152 4.18718C0.181152 4.02869 0.301092 3.93017 0.540972 3.89162L3.76649 3.42257L5.2122 0.499037C5.29358 0.323411 5.39853 0.235598 5.52704 0.235598C5.65554 0.235598 5.76049 0.323411 5.84188 0.499037L7.28758 3.42257L10.5131 3.89162C10.753 3.93017 10.8729 4.02869 10.8729 4.18718Z" fill="#777777"/>
</svg>
