<svg width="11" height="12" viewBox="0 0 11 12" fill="none" xmlns="http://www.w3.org/2000/svg">
<path d="M10.7494 4.18845C10.7494 4.28262 10.6937 4.38535 10.5823 4.49664L8.24993 6.7695L8.80251 9.97976C8.80679 10.0097 8.80894 10.0525 8.80894 10.1082C8.80894 10.1981 8.78645 10.274 8.74147 10.3361C8.69649 10.3982 8.63117 10.4292 8.5455 10.4292C8.46411 10.4292 8.37844 10.4035 8.28848 10.3522L5.4035 8.83691L2.51852 10.3522C2.42429 10.4035 2.33861 10.4292 2.26151 10.4292C2.17156 10.4292 2.10409 10.3982 2.05911 10.3361C2.01413 10.274 1.99165 10.1981 1.99165 10.1082C1.99165 10.0825 1.99593 10.0397 2.0045 9.97976L2.55708 6.7695L0.218251 4.49664C0.111162 4.38107 0.0576172 4.27834 0.0576172 4.18845C0.0576172 4.03008 0.177557 3.93163 0.417436 3.89311L3.64296 3.42441L5.08866 0.503071C5.17005 0.327577 5.275 0.239829 5.4035 0.239829C5.53201 0.239829 5.63696 0.327577 5.71834 0.503071L7.16405 3.42441L10.3896 3.89311C10.6294 3.93163 10.7494 4.03008 10.7494 4.18845Z" fill="#F27D0C"/>
</svg>
