<svg width="11" height="12" viewBox="0 0 11 12" fill="none" xmlns="http://www.w3.org/2000/svg">
<path d="M11.0004 4.18845C11.0004 4.28262 10.9447 4.38535 10.8333 4.49664L8.50091 6.7695L9.05349 9.97976C9.05777 10.0097 9.05991 10.0525 9.05991 10.1082C9.05991 10.1981 9.03742 10.274 8.99244 10.3361C8.94747 10.3982 8.88214 10.4292 8.79647 10.4292C8.71509 10.4292 8.62941 10.4035 8.53946 10.3522L5.65448 8.83691L2.7695 10.3522C2.67526 10.4035 2.58959 10.4292 2.51249 10.4292C2.42253 10.4292 2.35507 10.3982 2.31009 10.3361C2.26511 10.274 2.24262 10.1981 2.24262 10.1082C2.24262 10.0825 2.24691 10.0397 2.25547 9.97976L2.80805 6.7695L0.469227 4.49664C0.362138 4.38107 0.308594 4.27834 0.308594 4.18845C0.308594 4.03008 0.428534 3.93163 0.668413 3.89311L3.89394 3.42441L5.33964 0.503071C5.42103 0.327577 5.52597 0.239829 5.65448 0.239829C5.78299 0.239829 5.88793 0.327577 5.96932 0.503071L7.41502 3.42441L10.6405 3.89311C10.8804 3.93163 11.0004 4.03008 11.0004 4.18845Z" fill="#F27D0C"/>
</svg>
