<svg width="12" height="12" viewBox="0 0 12 12" fill="none" xmlns="http://www.w3.org/2000/svg">
<path d="M11.4359 4.18845C11.4359 4.28262 11.3802 4.38535 11.2689 4.49664L8.93645 6.7695L9.48903 9.97976C9.49332 10.0097 9.49546 10.0525 9.49546 10.1082C9.49546 10.1981 9.47297 10.274 9.42799 10.3361C9.38301 10.3982 9.31769 10.4292 9.23202 10.4292C9.15063 10.4292 9.06496 10.4035 8.97501 10.3522L6.09003 8.83691L3.20505 10.3522C3.11081 10.4035 3.02514 10.4292 2.94803 10.4292C2.85808 10.4292 2.79061 10.3982 2.74564 10.3361C2.70066 10.274 2.67817 10.1981 2.67817 10.1082C2.67817 10.0825 2.68245 10.0397 2.69102 9.97976L3.2436 6.7695L0.904774 4.49664C0.797685 4.38107 0.744141 4.27834 0.744141 4.18845C0.744141 4.03008 0.86408 3.93163 1.10396 3.89311L4.32948 3.42441L5.77518 0.503071C5.85657 0.327577 5.96152 0.239829 6.09003 0.239829C6.21853 0.239829 6.32348 0.327577 6.40487 0.503071L7.85057 3.42441L11.0761 3.89311C11.316 3.93163 11.4359 4.03008 11.4359 4.18845Z" fill="#777777"/>
</svg>
