<svg width="12" height="12" viewBox="0 0 12 12" fill="none" xmlns="http://www.w3.org/2000/svg">
<path d="M11.0851 4.18845C11.0851 4.28262 11.0295 4.38535 10.9182 4.49664L8.58753 6.7695L9.1397 9.97976C9.14398 10.0097 9.14612 10.0525 9.14612 10.1082C9.14612 10.1981 9.12365 10.274 9.0787 10.3361C9.03376 10.3982 8.96848 10.4292 8.88288 10.4292C8.80155 10.4292 8.71594 10.4035 8.62606 10.3522L5.74324 8.83691L2.86043 10.3522C2.76626 10.4035 2.68065 10.4292 2.60361 10.4292C2.51372 10.4292 2.4463 10.3982 2.40136 10.3361C2.35642 10.274 2.33394 10.1981 2.33394 10.1082C2.33394 10.0825 2.33822 10.0397 2.34679 9.97976L2.89895 6.7695L0.56188 4.49664C0.454872 4.38107 0.401367 4.27834 0.401367 4.18845C0.401367 4.03008 0.521217 3.93163 0.760916 3.89311L3.98402 3.42441L5.42864 0.503071C5.50996 0.327577 5.61483 0.239829 5.74324 0.239829C5.87165 0.239829 5.97652 0.327577 6.05785 0.503071L7.50247 3.42441L10.7256 3.89311C10.9653 3.93163 11.0851 4.03008 11.0851 4.18845Z" fill="#F27D0C"/>
</svg>
