<svg width="10" height="16" viewBox="0 0 10 16" fill="none" xmlns="http://www.w3.org/2000/svg">
<path d="M8.77913 6.52948C8.8327 6.58305 8.85949 6.64466 8.85949 6.7143C8.85949 6.78394 8.8327 6.84555 8.77913 6.89912L5.03449 10.6438C4.98092 10.6973 4.91931 10.7241 4.84967 10.7241C4.78002 10.7241 4.71842 10.6973 4.66484 10.6438L0.920201 6.89912C0.866629 6.84555 0.839844 6.78394 0.839844 6.7143C0.839844 6.64466 0.866629 6.58305 0.920201 6.52948L1.32199 6.12769C1.37556 6.07412 1.43717 6.04734 1.50681 6.04734C1.57645 6.04734 1.63806 6.07412 1.69163 6.12769L4.84967 9.28573L8.0077 6.12769C8.06127 6.07412 8.12288 6.04734 8.19252 6.04734C8.26217 6.04734 8.32377 6.07412 8.37735 6.12769L8.77913 6.52948Z" fill="#777777"/>
</svg>
