<svg width="11" height="12" viewBox="0 0 11 12" fill="none" xmlns="http://www.w3.org/2000/svg">
<path d="M10.6859 4.18845C10.6859 4.28262 10.6302 4.38535 10.5189 4.49664L8.18645 6.7695L8.73903 9.97976C8.74332 10.0097 8.74546 10.0525 8.74546 10.1082C8.74546 10.1981 8.72297 10.274 8.67799 10.3361C8.63301 10.3982 8.56769 10.4292 8.48202 10.4292C8.40063 10.4292 8.31496 10.4035 8.22501 10.3522L5.34003 8.83691L2.45505 10.3522C2.36081 10.4035 2.27514 10.4292 2.19803 10.4292C2.10808 10.4292 2.04061 10.3982 1.99564 10.3361C1.95066 10.274 1.92817 10.1981 1.92817 10.1082C1.92817 10.0825 1.93245 10.0397 1.94102 9.97976L2.4936 6.7695L0.154774 4.49664C0.0476852 4.38107 -0.00585938 4.27834 -0.00585938 4.18845C-0.00585938 4.03008 0.11408 3.93163 0.35396 3.89311L3.57948 3.42441L5.02518 0.503071C5.10657 0.327577 5.21152 0.239829 5.34003 0.239829C5.46853 0.239829 5.57348 0.327577 5.65487 0.503071L7.10057 3.42441L10.3261 3.89311C10.566 3.93163 10.6859 4.03008 10.6859 4.18845Z" fill="#777777"/>
</svg>
