<svg width="12" height="12" viewBox="0 0 12 12" fill="none" xmlns="http://www.w3.org/2000/svg">
<path d="M11.1859 4.18845C11.1859 4.28262 11.1302 4.38535 11.0189 4.49664L8.68645 6.7695L9.23903 9.97976C9.24332 10.0097 9.24546 10.0525 9.24546 10.1082C9.24546 10.1981 9.22297 10.274 9.17799 10.3361C9.13301 10.3982 9.06769 10.4292 8.98202 10.4292C8.90063 10.4292 8.81496 10.4035 8.72501 10.3522L5.84003 8.83691L2.95505 10.3522C2.86081 10.4035 2.77514 10.4292 2.69803 10.4292C2.60808 10.4292 2.54061 10.3982 2.49564 10.3361C2.45066 10.274 2.42817 10.1981 2.42817 10.1082C2.42817 10.0825 2.43245 10.0397 2.44102 9.97976L2.9936 6.7695L0.654774 4.49664C0.547685 4.38107 0.494141 4.27834 0.494141 4.18845C0.494141 4.03008 0.61408 3.93163 0.85396 3.89311L4.07948 3.42441L5.52518 0.503071C5.60657 0.327577 5.71152 0.239829 5.84003 0.239829C5.96853 0.239829 6.07348 0.327577 6.15487 0.503071L7.60057 3.42441L10.8261 3.89311C11.066 3.93163 11.1859 4.03008 11.1859 4.18845Z" fill="#777777"/>
</svg>
