<svg width="22" height="25" viewBox="0 0 22 25" fill="none" xmlns="http://www.w3.org/2000/svg">
<path d="M17.8266 8.44171C17.3099 8.67237 16.7517 8.82921 16.152 8.91225C16.7794 8.5432 17.2084 8.00347 17.4391 7.29305C16.8394 7.64365 16.2212 7.87892 15.5846 7.99886C15.0218 7.38993 14.316 7.08546 13.4672 7.08546C12.6645 7.08546 11.9795 7.36917 11.4121 7.93658C10.8447 8.50399 10.561 9.18903 10.561 9.99171C10.561 10.2593 10.584 10.4807 10.6302 10.656C9.43998 10.5914 8.32361 10.2916 7.28105 9.75644C6.2385 9.22133 5.35278 8.5063 4.62391 7.61136C4.35635 8.07267 4.22257 8.56165 4.22257 9.07832C4.22257 10.1301 4.64236 10.9374 5.48195 11.5002C5.04832 11.491 4.58701 11.371 4.09802 11.1404V11.1681C4.09802 11.86 4.32867 12.4759 4.78998 13.0156C5.25129 13.5553 5.8187 13.8898 6.49222 14.0189C6.22466 14.0928 5.98939 14.1297 5.78641 14.1297C5.66647 14.1297 5.48656 14.1112 5.24668 14.0743C5.44043 14.6556 5.78411 15.1353 6.27771 15.5136C6.77131 15.8919 7.3318 16.0856 7.95918 16.0948C6.88894 16.9252 5.68492 17.3404 4.34713 17.3404C4.10725 17.3404 3.87659 17.3265 3.65516 17.2989C5.02064 18.1661 6.50605 18.5997 8.11141 18.5997C9.14474 18.5997 10.1135 18.436 11.0177 18.1085C11.9218 17.7809 12.6968 17.3427 13.3427 16.7937C13.9885 16.2448 14.5444 15.6128 15.0103 14.8977C15.4762 14.1827 15.8222 13.4354 16.0482 12.6558C16.2743 11.8762 16.3873 11.0989 16.3873 10.3239C16.3873 10.1578 16.3827 10.0332 16.3735 9.9502C16.9547 9.53502 17.4391 9.03219 17.8266 8.44171ZM21.3694 5.75689V19.0426C21.3694 20.1405 20.9796 21.0793 20.2 21.8589C19.4204 22.6385 18.4816 23.0283 17.3837 23.0283H4.09802C3.0001 23.0283 2.06134 22.6385 1.28172 21.8589C0.502111 21.0793 0.112305 20.1405 0.112305 19.0426V5.75689C0.112305 4.65898 0.502111 3.72021 1.28172 2.9406C2.06134 2.16098 3.0001 1.77118 4.09802 1.77118H17.3837C18.4816 1.77118 19.4204 2.16098 20.2 2.9406C20.9796 3.72021 21.3694 4.65898 21.3694 5.75689Z" fill="#BBBBBB"/>
</svg>
