<svg width="11" height="12" viewBox="0 0 11 12" fill="none" xmlns="http://www.w3.org/2000/svg">
<path d="M10.7504 4.18845C10.7504 4.28262 10.6947 4.38535 10.5833 4.49664L8.25091 6.7695L8.80349 9.97976C8.80777 10.0097 8.80991 10.0525 8.80991 10.1082C8.80991 10.1981 8.78742 10.274 8.74244 10.3361C8.69747 10.3982 8.63214 10.4292 8.54647 10.4292C8.46509 10.4292 8.37941 10.4035 8.28946 10.3522L5.40448 8.83691L2.5195 10.3522C2.42526 10.4035 2.33959 10.4292 2.26249 10.4292C2.17253 10.4292 2.10507 10.3982 2.06009 10.3361C2.01511 10.274 1.99262 10.1981 1.99262 10.1082C1.99262 10.0825 1.99691 10.0397 2.00547 9.97976L2.55805 6.7695L0.219227 4.49664C0.112138 4.38107 0.0585938 4.27834 0.0585938 4.18845C0.0585938 4.03008 0.178534 3.93163 0.418413 3.89311L3.64394 3.42441L5.08964 0.503071C5.17103 0.327577 5.27597 0.239829 5.40448 0.239829C5.53299 0.239829 5.63793 0.327577 5.71932 0.503071L7.16502 3.42441L10.3905 3.89311C10.6304 3.93163 10.7504 4.03008 10.7504 4.18845Z" fill="#F27D0C"/>
</svg>
