<svg width="12" height="12" viewBox="0 0 12 12" fill="none" xmlns="http://www.w3.org/2000/svg">
<path d="M11.4994 4.18845C11.4994 4.28262 11.4437 4.38535 11.3323 4.49664L8.99993 6.7695L9.55251 9.97976C9.55679 10.0097 9.55894 10.0525 9.55894 10.1082C9.55894 10.1981 9.53645 10.274 9.49147 10.3361C9.44649 10.3982 9.38117 10.4292 9.2955 10.4292C9.21411 10.4292 9.12844 10.4035 9.03848 10.3522L6.1535 8.83691L3.26852 10.3522C3.17429 10.4035 3.08861 10.4292 3.01151 10.4292C2.92156 10.4292 2.85409 10.3982 2.80911 10.3361C2.76413 10.274 2.74165 10.1981 2.74165 10.1082C2.74165 10.0825 2.74593 10.0397 2.7545 9.97976L3.30708 6.7695L0.968251 4.49664C0.861162 4.38107 0.807617 4.27834 0.807617 4.18845C0.807617 4.03008 0.927557 3.93163 1.16744 3.89311L4.39296 3.42441L5.83866 0.503071C5.92005 0.327577 6.025 0.239829 6.1535 0.239829C6.28201 0.239829 6.38696 0.327577 6.46834 0.503071L7.91405 3.42441L11.1396 3.89311C11.3794 3.93163 11.4994 4.03008 11.4994 4.18845Z" fill="#F27D0C"/>
</svg>
