<svg width="11" height="12" viewBox="0 0 11 12" fill="none" xmlns="http://www.w3.org/2000/svg">
<path d="M10.8351 4.18845C10.8351 4.28262 10.7795 4.38535 10.6682 4.49664L8.33753 6.7695L8.8897 9.97976C8.89398 10.0097 8.89612 10.0525 8.89612 10.1082C8.89612 10.1981 8.87365 10.274 8.8287 10.3361C8.78376 10.3982 8.71848 10.4292 8.63288 10.4292C8.55155 10.4292 8.46594 10.4035 8.37606 10.3522L5.49324 8.83691L2.61043 10.3522C2.51626 10.4035 2.43065 10.4292 2.35361 10.4292C2.26372 10.4292 2.1963 10.3982 2.15136 10.3361C2.10642 10.274 2.08394 10.1981 2.08394 10.1082C2.08394 10.0825 2.08822 10.0397 2.09679 9.97976L2.64895 6.7695L0.31188 4.49664C0.204872 4.38107 0.151367 4.27834 0.151367 4.18845C0.151367 4.03008 0.271217 3.93163 0.510916 3.89311L3.73402 3.42441L5.17864 0.503071C5.25996 0.327577 5.36483 0.239829 5.49324 0.239829C5.62165 0.239829 5.72652 0.327577 5.80785 0.503071L7.25247 3.42441L10.4756 3.89311C10.7153 3.93163 10.8351 4.03008 10.8351 4.18845Z" fill="#F27D0C"/>
</svg>
