<svg width="11" height="12" viewBox="0 0 11 12" fill="none" xmlns="http://www.w3.org/2000/svg">
<path d="M10.9359 4.18845C10.9359 4.28262 10.8802 4.38535 10.7689 4.49664L8.43645 6.7695L8.98903 9.97976C8.99332 10.0097 8.99546 10.0525 8.99546 10.1082C8.99546 10.1981 8.97297 10.274 8.92799 10.3361C8.88301 10.3982 8.81769 10.4292 8.73202 10.4292C8.65063 10.4292 8.56496 10.4035 8.47501 10.3522L5.59003 8.83691L2.70505 10.3522C2.61081 10.4035 2.52514 10.4292 2.44803 10.4292C2.35808 10.4292 2.29061 10.3982 2.24564 10.3361C2.20066 10.274 2.17817 10.1981 2.17817 10.1082C2.17817 10.0825 2.18245 10.0397 2.19102 9.97976L2.7436 6.7695L0.404774 4.49664C0.297685 4.38107 0.244141 4.27834 0.244141 4.18845C0.244141 4.03008 0.36408 3.93163 0.60396 3.89311L3.82948 3.42441L5.27518 0.503071C5.35657 0.327577 5.46152 0.239829 5.59003 0.239829C5.71853 0.239829 5.82348 0.327577 5.90487 0.503071L7.35057 3.42441L10.5761 3.89311C10.816 3.93163 10.9359 4.03008 10.9359 4.18845Z" fill="#777777"/>
</svg>
