<svg width="12" height="12" viewBox="0 0 12 12" fill="none" xmlns="http://www.w3.org/2000/svg">
<path d="M11.0212 4.18845C11.0212 4.28262 10.9655 4.38535 10.8542 4.49664L8.52357 6.7695L9.07573 9.97976C9.08001 10.0097 9.08215 10.0525 9.08215 10.1082C9.08215 10.1981 9.05968 10.274 9.01474 10.3361C8.9698 10.3982 8.90452 10.4292 8.81891 10.4292C8.73759 10.4292 8.65198 10.4035 8.56209 10.3522L5.67928 8.83691L2.79646 10.3522C2.7023 10.4035 2.61669 10.4292 2.53964 10.4292C2.44975 10.4292 2.38234 10.3982 2.3374 10.3361C2.29245 10.274 2.26998 10.1981 2.26998 10.1082C2.26998 10.0825 2.27426 10.0397 2.28282 9.97976L2.83499 6.7695L0.497915 4.49664C0.390907 4.38107 0.337402 4.27834 0.337402 4.18845C0.337402 4.03008 0.457252 3.93163 0.696952 3.89311L3.92005 3.42441L5.36467 0.503071C5.446 0.327577 5.55087 0.239829 5.67928 0.239829C5.80769 0.239829 5.91256 0.327577 5.99388 0.503071L7.4385 3.42441L10.6616 3.89311C10.9013 3.93163 11.0212 4.03008 11.0212 4.18845Z" fill="#777777"/>
</svg>
