<svg width="12" height="12" viewBox="0 0 12 12" fill="none" xmlns="http://www.w3.org/2000/svg">
<path d="M11.3351 4.18845C11.3351 4.28262 11.2795 4.38535 11.1682 4.49664L8.83753 6.7695L9.3897 9.97976C9.39398 10.0097 9.39612 10.0525 9.39612 10.1082C9.39612 10.1981 9.37365 10.274 9.3287 10.3361C9.28376 10.3982 9.21848 10.4292 9.13288 10.4292C9.05155 10.4292 8.96594 10.4035 8.87606 10.3522L5.99324 8.83691L3.11043 10.3522C3.01626 10.4035 2.93065 10.4292 2.85361 10.4292C2.76372 10.4292 2.6963 10.3982 2.65136 10.3361C2.60642 10.274 2.58394 10.1981 2.58394 10.1082C2.58394 10.0825 2.58822 10.0397 2.59679 9.97976L3.14895 6.7695L0.81188 4.49664C0.704872 4.38107 0.651367 4.27834 0.651367 4.18845C0.651367 4.03008 0.771217 3.93163 1.01092 3.89311L4.23402 3.42441L5.67864 0.503071C5.75996 0.327577 5.86483 0.239829 5.99324 0.239829C6.12165 0.239829 6.22652 0.327577 6.30785 0.503071L7.75247 3.42441L10.9756 3.89311C11.2153 3.93163 11.3351 4.03008 11.3351 4.18845Z" fill="#F27D0C"/>
</svg>
