<svg width="12" height="12" viewBox="0 0 12 12" fill="none" xmlns="http://www.w3.org/2000/svg">
<path d="M11.2504 4.18845C11.2504 4.28262 11.1947 4.38535 11.0833 4.49664L8.75091 6.7695L9.30349 9.97976C9.30777 10.0097 9.30991 10.0525 9.30991 10.1082C9.30991 10.1981 9.28742 10.274 9.24244 10.3361C9.19747 10.3982 9.13214 10.4292 9.04647 10.4292C8.96509 10.4292 8.87941 10.4035 8.78946 10.3522L5.90448 8.83691L3.0195 10.3522C2.92526 10.4035 2.83959 10.4292 2.76249 10.4292C2.67253 10.4292 2.60507 10.3982 2.56009 10.3361C2.51511 10.274 2.49262 10.1981 2.49262 10.1082C2.49262 10.0825 2.49691 10.0397 2.50547 9.97976L3.05805 6.7695L0.719227 4.49664C0.612138 4.38107 0.558594 4.27834 0.558594 4.18845C0.558594 4.03008 0.678534 3.93163 0.918413 3.89311L4.14394 3.42441L5.58964 0.503071C5.67103 0.327577 5.77597 0.239829 5.90448 0.239829C6.03299 0.239829 6.13793 0.327577 6.21932 0.503071L7.66502 3.42441L10.8905 3.89311C11.1304 3.93163 11.2504 4.03008 11.2504 4.18845Z" fill="#F27D0C"/>
</svg>
