<svg width="12" height="12" viewBox="0 0 12 12" fill="none" xmlns="http://www.w3.org/2000/svg">
<path d="M11.3729 4.18718C11.3729 4.28142 11.3172 4.38423 11.2059 4.4956L8.87347 6.77017L9.42604 9.98284C9.43033 10.0128 9.43247 10.0557 9.43247 10.1114C9.43247 10.2013 9.40998 10.2773 9.365 10.3394C9.32003 10.4016 9.2547 10.4326 9.16903 10.4326C9.08764 10.4326 9.00197 10.4069 8.91202 10.3555L6.02704 8.83913L3.14206 10.3555C3.04782 10.4069 2.96215 10.4326 2.88505 10.4326C2.79509 10.4326 2.72762 10.4016 2.68265 10.3394C2.63767 10.2773 2.61518 10.2013 2.61518 10.1114C2.61518 10.0856 2.61946 10.0428 2.62803 9.98284L3.18061 6.77017L0.841786 4.4956C0.734697 4.37994 0.681152 4.27714 0.681152 4.18718C0.681152 4.02869 0.801092 3.93017 1.04097 3.89162L4.26649 3.42257L5.7122 0.499037C5.79358 0.323411 5.89853 0.235598 6.02704 0.235598C6.15554 0.235598 6.26049 0.323411 6.34188 0.499037L7.78758 3.42257L11.0131 3.89162C11.253 3.93017 11.3729 4.02869 11.3729 4.18718Z" fill="#777777"/>
</svg>
