<svg width="18" height="18" viewBox="0 0 18 18" fill="none" xmlns="http://www.w3.org/2000/svg">
<path d="M11.3529 4.82685V2.94223C11.3529 2.4424 11.1546 1.96304 10.8016 1.60961C10.4486 1.25617 9.96982 1.05762 9.47059 1.05762H2.88235C2.38312 1.05762 1.90434 1.25617 1.55133 1.60961C1.19832 1.96304 1 2.4424 1 2.94223V14.2499C1 14.7498 1.19832 15.2291 1.55133 15.5825C1.90434 15.936 2.38312 16.1345 2.88235 16.1345H9.47059C9.96982 16.1345 10.4486 15.936 10.8016 15.5825C11.1546 15.2291 11.3529 14.7498 11.3529 14.2499V12.3653M5.70588 8.59608H17M17 8.59608L14.1765 5.76916M17 8.59608L14.1765 11.423" stroke="black" stroke-width="1.77778" stroke-linecap="round" stroke-linejoin="round"/>
</svg>
