<svg width="12" height="14" viewBox="0 0 12 14" fill="none" xmlns="http://www.w3.org/2000/svg">
<path d="M7.10982 6.71431C7.19268 6.79717 7.23412 6.89247 7.23412 7.00019C7.23412 7.10791 7.19268 7.20321 7.10982 7.28607L1.31755 13.0783C1.23469 13.1612 1.13939 13.2026 1.03167 13.2026C0.923945 13.2026 0.82865 13.1612 0.745785 13.0783L0.124298 12.4569C0.0414325 12.374 0 12.2787 0 12.171C0 12.0632 0.0414325 11.9679 0.124298 11.8851L5.00919 7.00019L0.124298 2.1153C0.0414325 2.03243 0 1.93714 0 1.82941C0 1.72169 0.0414325 1.62639 0.124298 1.54353L0.745785 0.922041C0.82865 0.839176 0.923945 0.797744 1.03167 0.797744C1.13939 0.797744 1.23469 0.839176 1.31755 0.922041L7.10982 6.71431ZM11.8828 6.71431C11.9657 6.79717 12.0071 6.89247 12.0071 7.00019C12.0071 7.10791 11.9657 7.20321 11.8828 7.28607L6.09058 13.0783C6.00771 13.1612 5.91242 13.2026 5.80469 13.2026C5.69697 13.2026 5.60167 13.1612 5.51881 13.0783L4.89732 12.4569C4.81446 12.374 4.77302 12.2787 4.77302 12.171C4.77302 12.0632 4.81446 11.9679 4.89732 11.8851L9.78221 7.00019L4.89732 2.1153C4.81446 2.03243 4.77302 1.93714 4.77302 1.82941C4.77302 1.72169 4.81446 1.62639 4.89732 1.54353L5.51881 0.922041C5.60167 0.839176 5.69697 0.797744 5.80469 0.797744C5.91242 0.797744 6.00771 0.839176 6.09058 0.922041L11.8828 6.71431Z" fill="#777777"/>
</svg>
