<svg width="12" height="12" viewBox="0 0 12 12" fill="none" xmlns="http://www.w3.org/2000/svg">
<path d="M11.3354 4.18885C11.3354 4.28302 11.2797 4.38574 11.1684 4.49703L8.83778 6.7699L9.38994 9.98016C9.39422 10.0101 9.39636 10.0529 9.39636 10.1086C9.39636 10.1985 9.37389 10.2744 9.32895 10.3365C9.284 10.3986 9.21873 10.4296 9.13312 10.4296C9.0518 10.4296 8.96619 10.4039 8.8763 10.3525L5.99349 8.83731L3.11067 10.3525C3.0165 10.4039 2.9309 10.4296 2.85385 10.4296C2.76396 10.4296 2.69655 10.3986 2.6516 10.3365C2.60666 10.2744 2.58419 10.1985 2.58419 10.1086C2.58419 10.0829 2.58847 10.0401 2.59703 9.98016L3.14919 6.7699L0.812124 4.49703C0.705116 4.38146 0.651611 4.27874 0.651611 4.18885C0.651611 4.03047 0.771461 3.93203 1.01116 3.8935L4.23426 3.42481L5.67888 0.503468C5.76021 0.327973 5.86508 0.240226 5.99349 0.240226C6.1219 0.240226 6.22677 0.327973 6.30809 0.503468L7.75271 3.42481L10.9758 3.8935C11.2155 3.93203 11.3354 4.03047 11.3354 4.18885Z" fill="#F27D0C"/>
</svg>
