<svg width="12" height="12" viewBox="0 0 12 12" fill="none" xmlns="http://www.w3.org/2000/svg">
<path d="M11.4362 4.18885C11.4362 4.28302 11.3805 4.38574 11.2691 4.49703L8.9367 6.7699L9.48928 9.98016C9.49356 10.0101 9.4957 10.0529 9.4957 10.1086C9.4957 10.1985 9.47321 10.2744 9.42824 10.3365C9.38326 10.3986 9.31793 10.4296 9.23226 10.4296C9.15088 10.4296 9.0652 10.4039 8.97525 10.3525L6.09027 8.83731L3.20529 10.3525C3.11105 10.4039 3.02538 10.4296 2.94828 10.4296C2.85832 10.4296 2.79086 10.3986 2.74588 10.3365C2.7009 10.2744 2.67841 10.1985 2.67841 10.1086C2.67841 10.0829 2.6827 10.0401 2.69126 9.98016L3.24384 6.7699L0.905018 4.49703C0.797929 4.38146 0.744385 4.27874 0.744385 4.18885C0.744385 4.03047 0.864325 3.93203 1.1042 3.8935L4.32973 3.42481L5.77543 0.503468C5.85682 0.327973 5.96176 0.240226 6.09027 0.240226C6.21878 0.240226 6.32372 0.327973 6.40511 0.503468L7.85081 3.42481L11.0763 3.8935C11.3162 3.93203 11.4362 4.03047 11.4362 4.18885Z" fill="#777777"/>
</svg>
