<svg width="11" height="12" viewBox="0 0 11 12" fill="none" xmlns="http://www.w3.org/2000/svg">
<path d="M10.7496 4.18885C10.7496 4.28302 10.6939 4.38574 10.5826 4.49703L8.25017 6.7699L8.80275 9.98016C8.80704 10.0101 8.80918 10.0529 8.80918 10.1086C8.80918 10.1985 8.78669 10.2744 8.74171 10.3365C8.69674 10.3986 8.63141 10.4296 8.54574 10.4296C8.46435 10.4296 8.37868 10.4039 8.28873 10.3525L5.40375 8.83731L2.51877 10.3525C2.42453 10.4039 2.33886 10.4296 2.26175 10.4296C2.1718 10.4296 2.10433 10.3986 2.05936 10.3365C2.01438 10.2744 1.99189 10.1985 1.99189 10.1086C1.99189 10.0829 1.99617 10.0401 2.00474 9.98016L2.55732 6.7699L0.218495 4.49703C0.111406 4.38146 0.0578613 4.27874 0.0578613 4.18885C0.0578613 4.03047 0.177801 3.93203 0.417681 3.8935L3.6432 3.42481L5.08891 0.503468C5.17029 0.327973 5.27524 0.240226 5.40375 0.240226C5.53225 0.240226 5.6372 0.327973 5.71859 0.503468L7.16429 3.42481L10.3898 3.8935C10.6297 3.93203 10.7496 4.03047 10.7496 4.18885Z" fill="#F27D0C"/>
</svg>
