<svg width="22" height="25" viewBox="0 0 22 25" fill="none" xmlns="http://www.w3.org/2000/svg">
<path d="M17.8256 8.44196C17.3089 8.67261 16.7508 8.82946 16.1511 8.91249C16.7784 8.54345 17.2075 8.00371 17.4381 7.2933C16.8384 7.64389 16.2203 7.87916 15.5836 7.9991C15.0209 7.39017 14.315 7.08571 13.4662 7.08571C12.6636 7.08571 11.9785 7.36941 11.4111 7.93682C10.8437 8.50423 10.56 9.18928 10.56 9.99196C10.56 10.2595 10.5831 10.4809 10.6292 10.6562C9.43901 10.5917 8.32264 10.2918 7.28008 9.75669C6.23752 9.22157 5.3518 8.50654 4.62294 7.6116C4.35538 8.07291 4.2216 8.5619 4.2216 9.07856C4.2216 10.1304 4.64139 10.9376 5.48097 11.5004C5.04734 11.4912 4.58603 11.3713 4.09704 11.1406V11.1683C4.09704 11.8603 4.3277 12.4761 4.78901 13.0158C5.25032 13.5556 5.81773 13.89 6.49124 14.0192C6.22368 14.093 5.98841 14.1299 5.78544 14.1299C5.66549 14.1299 5.48558 14.1115 5.2457 14.0745C5.43945 14.6558 5.78313 15.1356 6.27673 15.5138C6.77033 15.8921 7.33082 16.0859 7.9582 16.0951C6.88797 16.9254 5.68395 17.3406 4.34615 17.3406C4.10627 17.3406 3.87561 17.3268 3.65419 17.2991C5.01966 18.1664 6.50508 18.6 8.11044 18.6C9.14377 18.6 10.1125 18.4362 11.0167 18.1087C11.9209 17.7812 12.6959 17.3429 13.3417 16.794C13.9875 16.245 14.5434 15.613 15.0093 14.898C15.4752 14.183 15.8212 13.4356 16.0473 12.656C16.2733 11.8764 16.3863 11.0991 16.3863 10.3241C16.3863 10.158 16.3817 10.0335 16.3725 9.95044C16.9537 9.53526 17.4381 9.03243 17.8256 8.44196ZM21.3685 5.75714V19.0429C21.3685 20.1408 20.9787 21.0795 20.1991 21.8591C19.4194 22.6388 18.4807 23.0286 17.3828 23.0286H4.09704C2.99913 23.0286 2.06036 22.6388 1.28075 21.8591C0.501135 21.0795 0.111328 20.1408 0.111328 19.0429V5.75714C0.111328 4.65922 0.501135 3.72045 1.28075 2.94084C2.06036 2.16123 2.99913 1.77142 4.09704 1.77142H17.3828C18.4807 1.77142 19.4194 2.16123 20.1991 2.94084C20.9787 3.72045 21.3685 4.65922 21.3685 5.75714Z" fill="#BBBBBB"/>
</svg>
