<svg width="11" height="12" viewBox="0 0 11 12" fill="none" xmlns="http://www.w3.org/2000/svg">
<path d="M10.7714 4.18876C10.7714 4.28292 10.7158 4.38565 10.6045 4.49694L8.27381 6.76981L8.82598 9.98007C8.83026 10.01 8.8324 10.0528 8.8324 10.1085C8.8324 10.1984 8.80993 10.2743 8.76498 10.3364C8.72004 10.3985 8.65476 10.4295 8.56916 10.4295C8.48783 10.4295 8.40222 10.4038 8.31234 10.3525L5.42952 8.83721L2.54671 10.3525C2.45254 10.4038 2.36693 10.4295 2.28989 10.4295C2.2 10.4295 2.13258 10.3985 2.08764 10.3364C2.0427 10.2743 2.02022 10.1984 2.02022 10.1085C2.02022 10.0828 2.0245 10.04 2.03306 9.98007L2.58523 6.76981L0.24816 4.49694C0.141151 4.38137 0.0876465 4.27864 0.0876465 4.18876C0.0876465 4.03038 0.207496 3.93194 0.447196 3.89341L3.6703 3.42471L5.11492 0.503376C5.19624 0.327882 5.30111 0.240134 5.42952 0.240134C5.55793 0.240134 5.6628 0.327882 5.74413 0.503376L7.18875 3.42471L10.4118 3.89341C10.6515 3.93194 10.7714 4.03038 10.7714 4.18876Z" fill="#777777"/>
</svg>
