<svg width="12" height="12" viewBox="0 0 12 12" fill="none" xmlns="http://www.w3.org/2000/svg">
<path d="M11.0214 4.18876C11.0214 4.28292 10.9658 4.38565 10.8545 4.49694L8.52381 6.76981L9.07598 9.98007C9.08026 10.01 9.0824 10.0528 9.0824 10.1085C9.0824 10.1984 9.05993 10.2743 9.01498 10.3364C8.97004 10.3985 8.90476 10.4295 8.81916 10.4295C8.73783 10.4295 8.65222 10.4038 8.56234 10.3525L5.67952 8.83721L2.79671 10.3525C2.70254 10.4038 2.61693 10.4295 2.53989 10.4295C2.45 10.4295 2.38258 10.3985 2.33764 10.3364C2.2927 10.2743 2.27022 10.1984 2.27022 10.1085C2.27022 10.0828 2.2745 10.04 2.28306 9.98007L2.83523 6.76981L0.49816 4.49694C0.391151 4.38137 0.337646 4.27864 0.337646 4.18876C0.337646 4.03038 0.457496 3.93194 0.697196 3.89341L3.9203 3.42471L5.36492 0.503376C5.44624 0.327882 5.55111 0.240134 5.67952 0.240134C5.80793 0.240134 5.9128 0.327882 5.99413 0.503376L7.43875 3.42471L10.6618 3.89341C10.9015 3.93194 11.0214 4.03038 11.0214 4.18876Z" fill="#777777"/>
</svg>
