<svg width="11" height="12" viewBox="0 0 11 12" fill="none" xmlns="http://www.w3.org/2000/svg">
<path d="M10.9362 4.18876C10.9362 4.28292 10.8805 4.38565 10.7691 4.49694L8.4367 6.76981L8.98928 9.98007C8.99356 10.01 8.9957 10.0528 8.9957 10.1085C8.9957 10.1984 8.97321 10.2743 8.92824 10.3364C8.88326 10.3985 8.81793 10.4295 8.73226 10.4295C8.65088 10.4295 8.5652 10.4038 8.47525 10.3525L5.59027 8.83721L2.70529 10.3525C2.61105 10.4038 2.52538 10.4295 2.44828 10.4295C2.35832 10.4295 2.29086 10.3985 2.24588 10.3364C2.2009 10.2743 2.17841 10.1984 2.17841 10.1085C2.17841 10.0828 2.1827 10.04 2.19126 9.98007L2.74384 6.76981L0.405018 4.49694C0.297929 4.38137 0.244385 4.27864 0.244385 4.18876C0.244385 4.03038 0.364325 3.93194 0.604204 3.89341L3.82973 3.42471L5.27543 0.503376C5.35682 0.327882 5.46176 0.240134 5.59027 0.240134C5.71878 0.240134 5.82372 0.327882 5.90511 0.503376L7.35081 3.42471L10.5763 3.89341C10.8162 3.93194 10.9362 4.03038 10.9362 4.18876Z" fill="#777777"/>
</svg>
