<svg width="23" height="25" viewBox="0 0 23 25" fill="none" xmlns="http://www.w3.org/2000/svg">
<path d="M13.8049 14.9049C13.8049 14.9049 13.9779 14.7319 14.3238 14.3859C14.6698 14.0399 14.8428 13.378 14.8428 12.4C14.8428 11.422 14.4968 10.587 13.8049 9.89508C13.1129 9.20312 12.2779 8.85714 11.3 8.85714C10.322 8.85714 9.48701 9.20312 8.79505 9.89508C8.10308 10.587 7.7571 11.422 7.7571 12.4C7.7571 13.378 8.10308 14.2129 8.79505 14.9049C9.48701 15.5969 10.322 15.9429 11.3 15.9429C12.2779 15.9429 13.1129 15.5969 13.8049 14.9049ZM15.1611 8.53883C15.1611 8.53883 15.4264 8.80408 15.9569 9.33459C16.4874 9.8651 16.7526 10.8869 16.7526 12.4C16.7526 13.9131 16.2221 15.2001 15.1611 16.2612C14.1001 17.3222 12.8131 17.8527 11.3 17.8527C9.78686 17.8527 8.49981 17.3222 7.4388 16.2612C6.37779 15.2001 5.84728 13.9131 5.84728 12.4C5.84728 10.8869 6.37779 9.59984 7.4388 8.53883C8.49981 7.47782 9.78686 6.94732 11.3 6.94732C12.8131 6.94732 14.1001 7.47782 15.1611 8.53883ZM17.8736 5.82633C17.8736 5.82633 17.9359 5.88861 18.0604 6.01316C18.185 6.13772 18.2473 6.37529 18.2473 6.72589C18.2473 7.07648 18.1227 7.37633 17.8736 7.62544C17.6245 7.87455 17.3247 7.9991 16.9741 7.9991C16.6235 7.9991 16.3236 7.87455 16.0745 7.62544C15.8254 7.37633 15.7009 7.07648 15.7009 6.72589C15.7009 6.37529 15.8254 6.07544 16.0745 5.82633C16.3236 5.57722 16.6235 5.45267 16.9741 5.45267C17.3247 5.45267 17.6245 5.57722 17.8736 5.82633ZM12.3587 3.67432C12.3587 3.67432 12.1984 3.67548 11.8777 3.67778C11.5571 3.68009 11.3645 3.68124 11.3 3.68124C11.2354 3.68124 10.8825 3.67894 10.2413 3.67432C9.60003 3.66971 9.11335 3.66971 8.78121 3.67432C8.44907 3.67894 8.0039 3.69278 7.44572 3.71584C6.88753 3.73891 6.41238 3.78504 6.02027 3.85423C5.62816 3.92343 5.29832 4.00877 5.03076 4.11026C4.56945 4.29478 4.1635 4.56234 3.8129 4.91294C3.46231 5.26353 3.19475 5.66949 3.01023 6.1308C2.90874 6.39836 2.8234 6.72819 2.7542 7.12031C2.685 7.51242 2.63887 7.98757 2.61581 8.54575C2.59274 9.10394 2.5789 9.5491 2.57429 9.88124C2.56968 10.2134 2.56968 10.7001 2.57429 11.3413C2.5789 11.9825 2.58121 12.3354 2.58121 12.4C2.58121 12.4646 2.5789 12.8175 2.57429 13.4587C2.56968 14.0999 2.56968 14.5866 2.57429 14.9187C2.5789 15.2509 2.59274 15.696 2.61581 16.2542C2.63887 16.8124 2.685 17.2876 2.7542 17.6797C2.8234 18.0718 2.90874 18.4016 3.01023 18.6692C3.19475 19.1305 3.46231 19.5365 3.8129 19.887C4.1635 20.2376 4.56945 20.5052 5.03076 20.6897C5.29832 20.7912 5.62816 20.8766 6.02027 20.9458C6.41238 21.0149 6.88753 21.0611 7.44572 21.0841C8.0039 21.1072 8.44907 21.121 8.78121 21.1257C9.11335 21.1303 9.60003 21.1303 10.2413 21.1257C10.8825 21.121 11.2354 21.1187 11.3 21.1187C11.3645 21.1187 11.7174 21.121 12.3587 21.1257C12.9999 21.1303 13.4866 21.1303 13.8187 21.1257C14.1509 21.121 14.596 21.1072 15.1542 21.0841C15.7124 21.0611 16.1875 21.0149 16.5796 20.9458C16.9718 20.8766 17.3016 20.7912 17.5692 20.6897C18.0305 20.5052 18.4364 20.2376 18.787 19.887C19.1376 19.5365 19.4052 19.1305 19.5897 18.6692C19.6912 18.4016 19.7765 18.0718 19.8457 17.6797C19.9149 17.2876 19.961 16.8124 19.9841 16.2542C20.0072 15.696 20.021 15.2509 20.0256 14.9187C20.0302 14.5866 20.0302 14.0999 20.0256 13.4587C20.021 12.8175 20.0187 12.4646 20.0187 12.4C20.0187 12.3354 20.021 11.9825 20.0256 11.3413C20.0302 10.7001 20.0302 10.2134 20.0256 9.88124C20.021 9.5491 20.0072 9.10394 19.9841 8.54575C19.961 7.98757 19.9149 7.51242 19.8457 7.12031C19.7765 6.72819 19.6912 6.39836 19.5897 6.1308C19.4052 5.66949 19.1376 5.26353 18.787 4.91294C18.4364 4.56234 18.0305 4.29478 17.5692 4.11026C17.3016 4.00877 16.9718 3.92343 16.5796 3.85423C16.1875 3.78504 15.7124 3.73891 15.1542 3.71584C14.596 3.69278 14.1509 3.67894 13.8187 3.67432C13.4866 3.66971 12.9999 3.66971 12.3587 3.67432ZM21.8593 8.01294C21.9055 8.82484 21.9285 10.2872 21.9285 12.4C21.9285 14.5128 21.9055 15.9751 21.8593 16.787C21.7671 18.7061 21.195 20.1915 20.1433 21.2433C19.0915 22.2951 17.6061 22.8671 15.687 22.9594C14.8751 23.0055 13.4128 23.0286 11.3 23.0286C9.18716 23.0286 7.72481 23.0055 6.9129 22.9594C4.99386 22.8671 3.50844 22.2951 2.45665 21.2433C1.40487 20.1915 0.832845 18.7061 0.740583 16.787C0.694452 15.9751 0.671387 14.5128 0.671387 12.4C0.671387 10.2872 0.694452 8.82484 0.740583 8.01294C0.832845 6.09389 1.40487 4.60847 2.45665 3.55669C3.50844 2.5049 4.99386 1.93288 6.9129 1.84062C7.72481 1.79449 9.18716 1.77142 11.3 1.77142C13.4128 1.77142 14.8751 1.79449 15.687 1.84062C17.6061 1.93288 19.0915 2.5049 20.1433 3.55669C21.195 4.60847 21.7671 6.09389 21.8593 8.01294Z" fill="#BBBBBB"/>
</svg>
