<svg width="23" height="25" viewBox="0 0 23 25" fill="none" xmlns="http://www.w3.org/2000/svg">
<path d="M4.26984 19.5687H7.46522V9.96428H4.26984V19.5687ZM7.67271 7.00267C7.66349 6.52291 7.4975 6.12618 7.17473 5.81249C6.85196 5.4988 6.42315 5.34196 5.88828 5.34196C5.35341 5.34196 4.91767 5.4988 4.58107 5.81249C4.24448 6.12618 4.07618 6.52291 4.07618 7.00267C4.07618 7.47321 4.23986 7.86763 4.56724 8.18593C4.89462 8.50423 5.32113 8.66339 5.84678 8.66339H5.86061C6.4047 8.66339 6.84274 8.50423 7.17473 8.18593C7.50672 7.86763 7.67271 7.47321 7.67271 7.00267ZM15.7649 19.5687H18.9603V14.0607C18.9603 12.6399 18.6237 11.565 17.9505 10.8362C17.2773 10.1073 16.3874 9.74285 15.2808 9.74285C14.0266 9.74285 13.0629 10.2826 12.3897 11.362H12.4174V9.96428H9.22199C9.24965 10.5732 9.24965 13.7747 9.22199 19.5687H12.4174V14.1991C12.4174 13.8485 12.4496 13.5902 12.5142 13.4241C12.6525 13.1012 12.86 12.8267 13.1367 12.6007C13.4133 12.3746 13.7545 12.2616 14.1603 12.2616C15.23 12.2616 15.7649 12.9859 15.7649 14.4344V19.5687ZM22.2387 5.75714V19.0429C22.2387 20.1408 21.8491 21.0795 21.0698 21.8591C20.2906 22.6388 19.3522 23.0286 18.2548 23.0286H4.97531C3.87791 23.0286 2.93958 22.6388 2.16033 21.8591C1.38108 21.0795 0.991455 20.1408 0.991455 19.0429V5.75714C0.991455 4.65922 1.38108 3.72045 2.16033 2.94084C2.93958 2.16123 3.87791 1.77142 4.97531 1.77142H18.2548C19.3522 1.77142 20.2906 2.16123 21.0698 2.94084C21.8491 3.72045 22.2387 4.65922 22.2387 5.75714Z" fill="#BBBBBB"/>
</svg>
