<svg width="30" height="30" viewBox="0 0 30 30" fill="none" xmlns="http://www.w3.org/2000/svg">
<path d="M12.4239 14.2695C14.343 14.2695 16.0046 13.5811 17.3627 12.2231C18.7203 10.8653 19.4088 9.20389 19.4088 7.28453C19.4088 5.36583 18.7205 3.70423 17.3625 2.34597C16.0044 0.988364 14.3428 0.300049 12.4239 0.300049C10.5045 0.300049 8.84315 0.988364 7.48532 2.34619C6.1275 3.70401 5.43896 5.36561 5.43896 7.28453C5.43896 9.20389 6.1275 10.8655 7.48532 12.2233C8.84359 13.5809 10.5052 14.2695 12.4239 14.2695ZM8.68717 3.54781C9.72904 2.50593 10.9512 1.99949 12.4239 1.99949C13.8963 1.99949 15.1187 2.50593 16.1608 3.54781C17.2027 4.5899 17.7094 5.81232 17.7094 7.28453C17.7094 8.75719 17.2027 9.97938 16.1608 11.0215C15.1187 12.0636 13.8963 12.57 12.4239 12.57C10.9517 12.57 9.72948 12.0634 8.68717 11.0215C7.64507 9.9796 7.1384 8.75719 7.1384 7.28453C7.1384 5.81232 7.64507 4.5899 8.68717 3.54781Z" fill="black"/>
<path d="M24.6457 22.5995C24.6065 22.0344 24.5273 21.418 24.4107 20.7671C24.293 20.1113 24.1414 19.4914 23.96 18.9247C23.7724 18.3391 23.5177 17.7607 23.2025 17.2065C22.8757 16.6313 22.4916 16.1303 22.0606 15.7181C21.6099 15.2869 21.0581 14.9402 20.42 14.6873C19.7841 14.4358 19.0794 14.3083 18.3256 14.3083C18.0296 14.3083 17.7433 14.4298 17.1904 14.7898C16.8501 15.0117 16.4521 15.2683 16.0078 15.5522C15.6279 15.7943 15.1133 16.021 14.4776 16.2264C13.8574 16.427 13.2278 16.5288 12.606 16.5288C11.9848 16.5288 11.3551 16.427 10.7345 16.2264C10.0995 16.0213 9.58461 15.7945 9.20539 15.5524C8.76532 15.2712 8.36706 15.0146 8.02169 14.7895C7.46922 14.4296 7.18292 14.3081 6.88689 14.3081C6.13286 14.3081 5.4284 14.4358 4.79274 14.6876C4.15509 14.94 3.60307 15.2867 3.15193 15.7184C2.72094 16.1308 2.33684 16.6315 2.01027 17.2065C1.69543 17.7607 1.44055 18.3389 1.25293 18.925C1.07172 19.4916 0.920165 20.1113 0.802459 20.7671C0.685638 21.4172 0.606651 22.0338 0.56749 22.6002C0.528992 23.154 0.509521 23.7303 0.509521 24.3127C0.509521 25.8265 0.990745 27.052 1.93969 27.9558C2.87692 28.8477 4.11681 29.2999 5.62509 29.2999H19.5887C21.0966 29.2999 22.3365 28.8477 23.2739 27.9558C24.2231 27.0527 24.7043 25.8267 24.7043 24.3125C24.7041 23.7281 24.6844 23.1518 24.6457 22.5995ZM22.1022 26.7245C21.4829 27.314 20.6607 27.6005 19.5885 27.6005H5.62509C4.55268 27.6005 3.73051 27.314 3.11144 26.7248C2.50411 26.1466 2.20896 25.3574 2.20896 24.3127C2.20896 23.7693 2.22688 23.2327 2.26272 22.7177C2.29768 22.2123 2.36914 21.6572 2.47512 21.0674C2.57978 20.4848 2.71297 19.9381 2.87139 19.4431C3.02339 18.9686 3.2307 18.4986 3.48779 18.0459C3.73316 17.6145 4.01548 17.2443 4.327 16.9461C4.61839 16.6671 4.98567 16.4388 5.41844 16.2675C5.81868 16.1091 6.26849 16.0224 6.75679 16.0093C6.81631 16.041 6.92229 16.1014 7.09398 16.2133C7.44334 16.441 7.84602 16.7007 8.29118 16.985C8.79298 17.305 9.43947 17.5939 10.2119 17.8433C11.0015 18.0986 11.8069 18.2282 12.6063 18.2282C13.4056 18.2282 14.2112 18.0986 15.0004 17.8435C15.7735 17.5937 16.4198 17.305 16.9222 16.9846C17.3778 16.6934 17.7692 16.4412 18.1185 16.2133C18.2902 16.1016 18.3962 16.041 18.4557 16.0093C18.9442 16.0224 19.394 16.1091 19.7945 16.2675C20.2271 16.4388 20.5943 16.6673 20.8857 16.9461C21.1972 17.2441 21.4796 17.6143 21.7249 18.0462C21.9823 18.4986 22.1898 18.9688 22.3416 19.4429C22.5002 19.9385 22.6336 20.485 22.738 21.0671C22.8438 21.6581 22.9155 22.2134 22.9504 22.7179V22.7183C22.9865 23.2314 23.0047 23.7677 23.0049 24.3127C23.0047 25.3577 22.7095 26.1466 22.1022 26.7245Z" fill="black"/>
</svg>
