<svg width="11" height="12" viewBox="0 0 11 12" fill="none" xmlns="http://www.w3.org/2000/svg">
<path d="M10.7714 4.18885C10.7714 4.28302 10.7158 4.38574 10.6045 4.49703L8.27381 6.7699L8.82598 9.98016C8.83026 10.0101 8.8324 10.0529 8.8324 10.1086C8.8324 10.1985 8.80993 10.2744 8.76498 10.3365C8.72004 10.3986 8.65476 10.4296 8.56916 10.4296C8.48783 10.4296 8.40222 10.4039 8.31234 10.3525L5.42952 8.83731L2.54671 10.3525C2.45254 10.4039 2.36693 10.4296 2.28989 10.4296C2.2 10.4296 2.13258 10.3986 2.08764 10.3365C2.0427 10.2744 2.02022 10.1985 2.02022 10.1086C2.02022 10.0829 2.0245 10.0401 2.03306 9.98016L2.58523 6.7699L0.24816 4.49703C0.141151 4.38146 0.0876465 4.27874 0.0876465 4.18885C0.0876465 4.03047 0.207496 3.93203 0.447196 3.8935L3.6703 3.42481L5.11492 0.503468C5.19624 0.327973 5.30111 0.240226 5.42952 0.240226C5.55793 0.240226 5.6628 0.327973 5.74413 0.503468L7.18875 3.42481L10.4118 3.8935C10.6515 3.93203 10.7714 4.03047 10.7714 4.18885Z" fill="#777777"/>
</svg>
