<svg width="12" height="12" viewBox="0 0 12 12" fill="none" xmlns="http://www.w3.org/2000/svg">
<path d="M11.5854 4.18876C11.5854 4.28292 11.5297 4.38565 11.4184 4.49694L9.08778 6.76981L9.63994 9.98007C9.64422 10.01 9.64636 10.0528 9.64636 10.1085C9.64636 10.1984 9.62389 10.2743 9.57895 10.3364C9.534 10.3985 9.46873 10.4295 9.38312 10.4295C9.3018 10.4295 9.21619 10.4038 9.1263 10.3525L6.24349 8.83721L3.36067 10.3525C3.2665 10.4038 3.1809 10.4295 3.10385 10.4295C3.01396 10.4295 2.94655 10.3985 2.9016 10.3364C2.85666 10.2743 2.83419 10.1984 2.83419 10.1085C2.83419 10.0828 2.83847 10.04 2.84703 9.98007L3.39919 6.76981L1.06212 4.49694C0.955116 4.38137 0.901611 4.27864 0.901611 4.18876C0.901611 4.03038 1.02146 3.93194 1.26116 3.89341L4.48426 3.42471L5.92888 0.503376C6.01021 0.327882 6.11508 0.240134 6.24349 0.240134C6.3719 0.240134 6.47677 0.327882 6.55809 0.503376L8.00271 3.42471L11.2258 3.89341C11.4655 3.93194 11.5854 4.03038 11.5854 4.18876Z" fill="#F27D0C"/>
</svg>
