<svg width="12" height="12" viewBox="0 0 12 12" fill="none" xmlns="http://www.w3.org/2000/svg">
<path d="M11.1229 4.18764C11.1229 4.28188 11.0672 4.38469 10.9559 4.49606L8.62347 6.77063L9.17604 9.9833C9.18033 10.0133 9.18247 10.0561 9.18247 10.1118C9.18247 10.2018 9.15998 10.2778 9.115 10.3399C9.07003 10.402 9.0047 10.4331 8.91903 10.4331C8.83764 10.4331 8.75197 10.4074 8.66202 10.356L5.77704 8.83959L2.89206 10.356C2.79782 10.4074 2.71215 10.4331 2.63505 10.4331C2.54509 10.4331 2.47762 10.402 2.43265 10.3399C2.38767 10.2778 2.36518 10.2018 2.36518 10.1118C2.36518 10.0861 2.36946 10.0433 2.37803 9.9833L2.93061 6.77063L0.591786 4.49606C0.484697 4.3804 0.431152 4.2776 0.431152 4.18764C0.431152 4.02915 0.551092 3.93063 0.790972 3.89208L4.01649 3.42303L5.4622 0.499495C5.54358 0.323869 5.64853 0.236055 5.77704 0.236055C5.90554 0.236055 6.01049 0.323869 6.09188 0.499495L7.53758 3.42303L10.7631 3.89208C11.003 3.93063 11.1229 4.02915 11.1229 4.18764Z" fill="#777777"/>
</svg>
