<svg width="10" height="16" viewBox="0 0 10 16" fill="none" xmlns="http://www.w3.org/2000/svg">
<path d="M8.77938 6.52948C8.83295 6.58305 8.85973 6.64466 8.85973 6.7143C8.85973 6.78394 8.83295 6.84555 8.77938 6.89912L5.03473 10.6438C4.98116 10.6973 4.91955 10.7241 4.84991 10.7241C4.78027 10.7241 4.71866 10.6973 4.66509 10.6438L0.920445 6.89912C0.866874 6.84555 0.840088 6.78394 0.840088 6.7143C0.840088 6.64466 0.866874 6.58305 0.920445 6.52948L1.32223 6.12769C1.3758 6.07412 1.43741 6.04734 1.50705 6.04734C1.5767 6.04734 1.6383 6.07412 1.69187 6.12769L4.84991 9.28573L8.00795 6.12769C8.06152 6.07412 8.12313 6.04734 8.19277 6.04734C8.26241 6.04734 8.32402 6.07412 8.37759 6.12769L8.77938 6.52948Z" fill="#777777"/>
</svg>
