<svg width="12" height="12" viewBox="0 0 12 12" fill="none" xmlns="http://www.w3.org/2000/svg">
<path d="M11.6229 4.18764C11.6229 4.28188 11.5672 4.38469 11.4559 4.49606L9.12347 6.77063L9.67604 9.9833C9.68033 10.0133 9.68247 10.0561 9.68247 10.1118C9.68247 10.2018 9.65998 10.2778 9.615 10.3399C9.57003 10.402 9.5047 10.4331 9.41903 10.4331C9.33764 10.4331 9.25197 10.4074 9.16202 10.356L6.27704 8.83959L3.39206 10.356C3.29782 10.4074 3.21215 10.4331 3.13505 10.4331C3.04509 10.4331 2.97762 10.402 2.93265 10.3399C2.88767 10.2778 2.86518 10.2018 2.86518 10.1118C2.86518 10.0861 2.86946 10.0433 2.87803 9.9833L3.43061 6.77063L1.09179 4.49606C0.984697 4.3804 0.931152 4.2776 0.931152 4.18764C0.931152 4.02915 1.05109 3.93063 1.29097 3.89208L4.51649 3.42303L5.9622 0.499495C6.04358 0.323869 6.14853 0.236055 6.27704 0.236055C6.40554 0.236055 6.51049 0.323869 6.59188 0.499495L8.03758 3.42303L11.2631 3.89208C11.503 3.93063 11.6229 4.02915 11.6229 4.18764Z" fill="#777777"/>
</svg>
