<svg width="21" height="20" viewBox="0 0 21 20" fill="none" xmlns="http://www.w3.org/2000/svg">
<path d="M18.8223 2.38281H2.33789C1.36984 2.38281 0.580078 3.17172 0.580078 4.14062V15.8594C0.580078 16.825 1.36633 17.6172 2.33789 17.6172H18.8223C19.7879 17.6172 20.5801 16.8309 20.5801 15.8594V4.14062C20.5801 3.175 19.7938 2.38281 18.8223 2.38281ZM18.5795 3.55469L10.6173 11.5169L2.58629 3.55469H18.5795ZM1.75195 15.6167V4.3777L7.39566 9.97301L1.75195 15.6167ZM2.58059 16.4453L8.22785 10.798L10.2066 12.7598C10.4357 12.987 10.8054 12.9862 11.0335 12.758L12.9629 10.8286L18.5796 16.4453H2.58059ZM19.4082 15.6167L13.7915 10L19.4082 4.38328V15.6167Z" fill="black"/>
</svg>
