<svg width="12" height="12" viewBox="0 0 12 12" fill="none" xmlns="http://www.w3.org/2000/svg">
<path d="M11.4996 4.18885C11.4996 4.28302 11.4439 4.38574 11.3326 4.49703L9.00017 6.7699L9.55275 9.98016C9.55704 10.0101 9.55918 10.0529 9.55918 10.1086C9.55918 10.1985 9.53669 10.2744 9.49171 10.3365C9.44674 10.3986 9.38141 10.4296 9.29574 10.4296C9.21435 10.4296 9.12868 10.4039 9.03873 10.3525L6.15375 8.83731L3.26877 10.3525C3.17453 10.4039 3.08886 10.4296 3.01175 10.4296C2.9218 10.4296 2.85433 10.3986 2.80936 10.3365C2.76438 10.2744 2.74189 10.1985 2.74189 10.1086C2.74189 10.0829 2.74617 10.0401 2.75474 9.98016L3.30732 6.7699L0.968495 4.49703C0.861406 4.38146 0.807861 4.27874 0.807861 4.18885C0.807861 4.03047 0.927801 3.93203 1.16768 3.8935L4.3932 3.42481L5.83891 0.503468C5.92029 0.327973 6.02524 0.240226 6.15375 0.240226C6.28225 0.240226 6.3872 0.327973 6.46859 0.503468L7.91429 3.42481L11.1398 3.8935C11.3797 3.93203 11.4996 4.03047 11.4996 4.18885Z" fill="#F27D0C"/>
</svg>
