<svg width="18" height="7" viewBox="0 0 18 7" fill="none" xmlns="http://www.w3.org/2000/svg">
<path d="M8.66219 6.00775C8.59671 6.07323 8.52141 6.10596 8.43629 6.10596C8.35117 6.10596 8.27588 6.07323 8.2104 6.00775L3.63361 1.43096C3.56814 1.36549 3.5354 1.29019 3.5354 1.20507C3.5354 1.11995 3.56814 1.04465 3.63361 0.979178L4.12469 0.488107C4.19016 0.422631 4.26546 0.389893 4.35058 0.389893C4.4357 0.389893 4.511 0.422631 4.57647 0.488107L8.43629 4.34793L12.2961 0.488107C12.3616 0.422631 12.4369 0.389893 12.522 0.389893C12.6071 0.389893 12.6824 0.422631 12.7479 0.488107L13.239 0.979178C13.3044 1.04465 13.3372 1.11995 13.3372 1.20507C13.3372 1.29019 13.3044 1.36549 13.239 1.43096L8.66219 6.00775Z" fill="#17181C"/>
</svg>
