<svg width="17" height="28" viewBox="0 0 17 28" fill="none" xmlns="http://www.w3.org/2000/svg">
<path d="M9.63837 14.8093C9.73716 14.9081 9.78656 15.0217 9.78656 15.1501C9.78656 15.2786 9.73716 15.3922 9.63837 15.491L2.73249 22.3968C2.63369 22.4956 2.52007 22.545 2.39164 22.545C2.2632 22.545 2.14959 22.4956 2.05079 22.3968L1.30982 21.6559C1.21102 21.5571 1.16162 21.4435 1.16162 21.315C1.16162 21.1866 1.21102 21.073 1.30982 20.9742L7.13387 15.1501L1.30982 9.32607C1.21102 9.22727 1.16162 9.11365 1.16162 8.98522C1.16162 8.85678 1.21102 8.74317 1.30982 8.64437L2.05079 7.90339C2.14959 7.8046 2.2632 7.7552 2.39164 7.7552C2.52007 7.7552 2.63369 7.8046 2.73249 7.90339L9.63837 14.8093ZM15.329 14.8093C15.4278 14.9081 15.4772 15.0217 15.4772 15.1501C15.4772 15.2786 15.4278 15.3922 15.329 15.491L8.42317 22.3968C8.32437 22.4956 8.21076 22.545 8.08232 22.545C7.95388 22.545 7.84027 22.4956 7.74147 22.3968L7.0005 21.6559C6.9017 21.5571 6.8523 21.4435 6.8523 21.315C6.8523 21.1866 6.9017 21.073 7.0005 20.9742L12.8246 15.1501L7.0005 9.32607C6.9017 9.22727 6.8523 9.11365 6.8523 8.98522C6.8523 8.85678 6.9017 8.74317 7.0005 8.64437L7.74147 7.90339C7.84027 7.8046 7.95388 7.7552 8.08232 7.7552C8.21076 7.7552 8.32437 7.8046 8.42317 7.90339L15.329 14.8093Z" fill="white"/>
</svg>
