<svg width="11" height="12" viewBox="0 0 11 12" fill="none" xmlns="http://www.w3.org/2000/svg">
<path d="M10.8354 4.18876C10.8354 4.28292 10.7797 4.38565 10.6684 4.49694L8.33778 6.76981L8.88994 9.98007C8.89422 10.01 8.89636 10.0528 8.89636 10.1085C8.89636 10.1984 8.87389 10.2743 8.82895 10.3364C8.784 10.3985 8.71873 10.4295 8.63312 10.4295C8.5518 10.4295 8.46619 10.4038 8.3763 10.3525L5.49349 8.83721L2.61067 10.3525C2.5165 10.4038 2.4309 10.4295 2.35385 10.4295C2.26396 10.4295 2.19655 10.3985 2.1516 10.3364C2.10666 10.2743 2.08419 10.1984 2.08419 10.1085C2.08419 10.0828 2.08847 10.04 2.09703 9.98007L2.64919 6.76981L0.312124 4.49694C0.205116 4.38137 0.151611 4.27864 0.151611 4.18876C0.151611 4.03038 0.271461 3.93194 0.511161 3.89341L3.73426 3.42471L5.17888 0.503376C5.26021 0.327882 5.36508 0.240134 5.49349 0.240134C5.6219 0.240134 5.72677 0.327882 5.80809 0.503376L7.25271 3.42471L10.4758 3.89341C10.7155 3.93194 10.8354 4.03038 10.8354 4.18876Z" fill="#F27D0C"/>
</svg>
