<svg width="12" height="12" viewBox="0 0 12 12" fill="none" xmlns="http://www.w3.org/2000/svg">
<path d="M11.3354 4.18876C11.3354 4.28292 11.2797 4.38565 11.1684 4.49694L8.83778 6.76981L9.38994 9.98007C9.39422 10.01 9.39636 10.0528 9.39636 10.1085C9.39636 10.1984 9.37389 10.2743 9.32895 10.3364C9.284 10.3985 9.21873 10.4295 9.13312 10.4295C9.0518 10.4295 8.96619 10.4038 8.8763 10.3525L5.99349 8.83721L3.11067 10.3525C3.0165 10.4038 2.9309 10.4295 2.85385 10.4295C2.76396 10.4295 2.69655 10.3985 2.6516 10.3364C2.60666 10.2743 2.58419 10.1984 2.58419 10.1085C2.58419 10.0828 2.58847 10.04 2.59703 9.98007L3.14919 6.76981L0.812124 4.49694C0.705116 4.38137 0.651611 4.27864 0.651611 4.18876C0.651611 4.03038 0.771461 3.93194 1.01116 3.89341L4.23426 3.42471L5.67888 0.503376C5.76021 0.327882 5.86508 0.240134 5.99349 0.240134C6.1219 0.240134 6.22677 0.327882 6.30809 0.503376L7.75271 3.42471L10.9758 3.89341C11.2155 3.93194 11.3354 4.03038 11.3354 4.18876Z" fill="#F27D0C"/>
</svg>
