<svg width="24" height="24" viewBox="0 0 24 24" fill="none" xmlns="http://www.w3.org/2000/svg">
<path d="M20.2736 22.6813H15.3861C14.0564 22.6813 12.9783 21.6031 12.9783 20.2735V13.6969C12.9783 13.3016 13.3017 12.9781 13.697 12.9781H20.2736C21.6033 12.9781 22.6814 14.0563 22.6814 15.386V20.2735C22.6814 21.6031 21.6033 22.6813 20.2736 22.6813ZM14.4158 14.4156V20.2735C14.4158 20.8125 14.847 21.2438 15.3861 21.2438H20.2736C20.8126 21.2438 21.2439 20.8125 21.2439 20.2735V15.386C21.2439 14.8469 20.8126 14.4156 20.2736 14.4156H14.4158Z" fill="#777777"/>
<path d="M8.41421 22.6813H3.52671C2.19702 22.6813 1.1189 21.6031 1.1189 20.2735V15.386C1.1189 14.0563 2.19702 12.9781 3.52671 12.9781H10.1033C10.4986 12.9781 10.822 13.3016 10.822 13.6969V20.2735C10.822 21.6031 9.7439 22.6813 8.41421 22.6813ZM3.52671 14.4156C2.98765 14.4156 2.5564 14.8469 2.5564 15.386V20.2735C2.5564 20.8125 2.98765 21.2438 3.52671 21.2438H8.41421C8.95327 21.2438 9.38452 20.8125 9.38452 20.2735V14.4156H3.52671Z" fill="#777777"/>
<path d="M20.2736 10.8219H13.697C13.3017 10.8219 12.9783 10.4985 12.9783 10.1031V3.52659C12.9783 2.1969 14.0564 1.11877 15.3861 1.11877H20.2736C21.6033 1.11877 22.6814 2.1969 22.6814 3.52659V8.41409C22.6814 9.74377 21.6033 10.8219 20.2736 10.8219ZM14.4158 9.3844H20.2736C20.8126 9.3844 21.2439 8.95315 21.2439 8.41409V3.52659C21.2439 2.98752 20.8126 2.55627 20.2736 2.55627H15.3861C14.847 2.55627 14.4158 2.98752 14.4158 3.52659V9.3844Z" fill="#777777"/>
<path d="M10.1033 10.8219H3.52671C2.19702 10.8219 1.1189 9.74377 1.1189 8.41409V3.52659C1.1189 2.1969 2.19702 1.11877 3.52671 1.11877H8.41421C9.7439 1.11877 10.822 2.1969 10.822 3.52659V10.1031C10.822 10.4985 10.4986 10.8219 10.1033 10.8219ZM3.52671 2.55627C2.98765 2.55627 2.5564 2.98752 2.5564 3.52659V8.41409C2.5564 8.95315 2.98765 9.3844 3.52671 9.3844H9.38452V3.52659C9.38452 2.98752 8.95327 2.55627 8.41421 2.55627H3.52671Z" fill="#777777"/>
</svg>
