<svg width="12" height="20" viewBox="0 0 12 20" fill="none" xmlns="http://www.w3.org/2000/svg">
<path d="M6.94472 10.2213C7.0132 10.2898 7.04743 10.3685 7.04743 10.4575C7.04743 10.5465 7.0132 10.6253 6.94472 10.6937L2.15853 15.4799C2.09006 15.5484 2.01131 15.5826 1.9223 15.5826C1.83329 15.5826 1.75454 15.5484 1.68607 15.4799L1.17253 14.9664C1.10406 14.8979 1.06982 14.8192 1.06982 14.7302C1.06982 14.6412 1.10406 14.5624 1.17253 14.4939L5.20896 10.4575L1.17253 6.42108C1.10406 6.35261 1.06982 6.27387 1.06982 6.18486C1.06982 6.09584 1.10406 6.0171 1.17253 5.94863L1.68607 5.43509C1.75454 5.36662 1.83329 5.33238 1.9223 5.33238C2.01131 5.33238 2.09006 5.36662 2.15853 5.43509L6.94472 10.2213ZM10.8887 10.2213C10.9572 10.2898 10.9914 10.3685 10.9914 10.4575C10.9914 10.5465 10.9572 10.6253 10.8887 10.6937L6.10252 15.4799C6.03405 15.5484 5.9553 15.5826 5.86629 15.5826C5.77728 15.5826 5.69853 15.5484 5.63006 15.4799L5.11652 14.9664C5.04805 14.8979 5.01381 14.8192 5.01381 14.7302C5.01381 14.6412 5.04805 14.5624 5.11652 14.4939L9.15295 10.4575L5.11652 6.42108C5.04805 6.35261 5.01381 6.27387 5.01381 6.18486C5.01381 6.09584 5.04805 6.0171 5.11652 5.94863L5.63006 5.43509C5.69853 5.36662 5.77728 5.33238 5.86629 5.33238C5.9553 5.33238 6.03405 5.36662 6.10252 5.43509L10.8887 10.2213Z" fill="#BBBBBB"/>
</svg>
