<svg width="12" height="12" viewBox="0 0 12 12" fill="none" xmlns="http://www.w3.org/2000/svg">
<path d="M11.2496 4.18885C11.2496 4.28302 11.1939 4.38574 11.0826 4.49703L8.75017 6.7699L9.30275 9.98016C9.30704 10.0101 9.30918 10.0529 9.30918 10.1086C9.30918 10.1985 9.28669 10.2744 9.24171 10.3365C9.19674 10.3986 9.13141 10.4296 9.04574 10.4296C8.96435 10.4296 8.87868 10.4039 8.78873 10.3525L5.90375 8.83731L3.01877 10.3525C2.92453 10.4039 2.83886 10.4296 2.76175 10.4296C2.6718 10.4296 2.60433 10.3986 2.55936 10.3365C2.51438 10.2744 2.49189 10.1985 2.49189 10.1086C2.49189 10.0829 2.49617 10.0401 2.50474 9.98016L3.05732 6.7699L0.718495 4.49703C0.611406 4.38146 0.557861 4.27874 0.557861 4.18885C0.557861 4.03047 0.677801 3.93203 0.917681 3.8935L4.1432 3.42481L5.58891 0.503468C5.67029 0.327973 5.77524 0.240226 5.90375 0.240226C6.03225 0.240226 6.1372 0.327973 6.21859 0.503468L7.66429 3.42481L10.8898 3.8935C11.1297 3.93203 11.2496 4.03047 11.2496 4.18885Z" fill="#F27D0C"/>
</svg>
