<svg width="12" height="12" viewBox="0 0 12 12" fill="none" xmlns="http://www.w3.org/2000/svg">
<path d="M11.2714 4.18876C11.2714 4.28292 11.2158 4.38565 11.1045 4.49694L8.77381 6.76981L9.32598 9.98007C9.33026 10.01 9.3324 10.0528 9.3324 10.1085C9.3324 10.1984 9.30993 10.2743 9.26498 10.3364C9.22004 10.3985 9.15476 10.4295 9.06916 10.4295C8.98783 10.4295 8.90222 10.4038 8.81234 10.3525L5.92952 8.83721L3.04671 10.3525C2.95254 10.4038 2.86693 10.4295 2.78989 10.4295C2.7 10.4295 2.63258 10.3985 2.58764 10.3364C2.5427 10.2743 2.52022 10.1984 2.52022 10.1085C2.52022 10.0828 2.5245 10.04 2.53306 9.98007L3.08523 6.76981L0.74816 4.49694C0.641151 4.38137 0.587646 4.27864 0.587646 4.18876C0.587646 4.03038 0.707496 3.93194 0.947196 3.89341L4.1703 3.42471L5.61492 0.503376C5.69624 0.327882 5.80111 0.240134 5.92952 0.240134C6.05793 0.240134 6.1628 0.327882 6.24413 0.503376L7.68875 3.42471L10.9118 3.89341C11.1515 3.93194 11.2714 4.03038 11.2714 4.18876Z" fill="#777777"/>
</svg>
