<svg width="12" height="12" viewBox="0 0 12 12" fill="none" xmlns="http://www.w3.org/2000/svg">
<path d="M11.4362 4.18876C11.4362 4.28292 11.3805 4.38565 11.2691 4.49694L8.9367 6.76981L9.48928 9.98007C9.49356 10.01 9.4957 10.0528 9.4957 10.1085C9.4957 10.1984 9.47321 10.2743 9.42824 10.3364C9.38326 10.3985 9.31793 10.4295 9.23226 10.4295C9.15088 10.4295 9.0652 10.4038 8.97525 10.3525L6.09027 8.83721L3.20529 10.3525C3.11105 10.4038 3.02538 10.4295 2.94828 10.4295C2.85832 10.4295 2.79086 10.3985 2.74588 10.3364C2.7009 10.2743 2.67841 10.1984 2.67841 10.1085C2.67841 10.0828 2.6827 10.04 2.69126 9.98007L3.24384 6.76981L0.905018 4.49694C0.797929 4.38137 0.744385 4.27864 0.744385 4.18876C0.744385 4.03038 0.864325 3.93194 1.1042 3.89341L4.32973 3.42471L5.77543 0.503376C5.85682 0.327882 5.96176 0.240134 6.09027 0.240134C6.21878 0.240134 6.32372 0.327882 6.40511 0.503376L7.85081 3.42471L11.0763 3.89341C11.3162 3.93194 11.4362 4.03038 11.4362 4.18876Z" fill="#777777"/>
</svg>
