<svg width="12" height="12" viewBox="0 0 12 12" fill="none" xmlns="http://www.w3.org/2000/svg">
<path d="M11.0854 4.18885C11.0854 4.28302 11.0297 4.38574 10.9184 4.49703L8.58778 6.7699L9.13994 9.98016C9.14422 10.0101 9.14636 10.0529 9.14636 10.1086C9.14636 10.1985 9.12389 10.2744 9.07895 10.3365C9.034 10.3986 8.96873 10.4296 8.88312 10.4296C8.8018 10.4296 8.71619 10.4039 8.6263 10.3525L5.74349 8.83731L2.86067 10.3525C2.7665 10.4039 2.6809 10.4296 2.60385 10.4296C2.51396 10.4296 2.44655 10.3986 2.4016 10.3365C2.35666 10.2744 2.33419 10.1985 2.33419 10.1086C2.33419 10.0829 2.33847 10.0401 2.34703 9.98016L2.89919 6.7699L0.562124 4.49703C0.455116 4.38146 0.401611 4.27874 0.401611 4.18885C0.401611 4.03047 0.521461 3.93203 0.761161 3.8935L3.98426 3.42481L5.42888 0.503468C5.51021 0.327973 5.61508 0.240226 5.74349 0.240226C5.8719 0.240226 5.97677 0.327973 6.05809 0.503468L7.50271 3.42481L10.7258 3.8935C10.9655 3.93203 11.0854 4.03047 11.0854 4.18885Z" fill="#F27D0C"/>
</svg>
