<svg width="12" height="12" viewBox="0 0 12 12" fill="none" xmlns="http://www.w3.org/2000/svg">
<path d="M11.1862 4.18885C11.1862 4.28302 11.1305 4.38574 11.0191 4.49703L8.6867 6.7699L9.23928 9.98016C9.24356 10.0101 9.2457 10.0529 9.2457 10.1086C9.2457 10.1985 9.22321 10.2744 9.17824 10.3365C9.13326 10.3986 9.06793 10.4296 8.98226 10.4296C8.90088 10.4296 8.8152 10.4039 8.72525 10.3525L5.84027 8.83731L2.95529 10.3525C2.86105 10.4039 2.77538 10.4296 2.69828 10.4296C2.60832 10.4296 2.54086 10.3986 2.49588 10.3365C2.4509 10.2744 2.42841 10.1985 2.42841 10.1086C2.42841 10.0829 2.4327 10.0401 2.44126 9.98016L2.99384 6.7699L0.655018 4.49703C0.547929 4.38146 0.494385 4.27874 0.494385 4.18885C0.494385 4.03047 0.614325 3.93203 0.854204 3.8935L4.07973 3.42481L5.52543 0.503468C5.60682 0.327973 5.71176 0.240226 5.84027 0.240226C5.96878 0.240226 6.07372 0.327973 6.15511 0.503468L7.60081 3.42481L10.8263 3.8935C11.0662 3.93203 11.1862 4.03047 11.1862 4.18885Z" fill="#777777"/>
</svg>
