<svg width="11" height="12" viewBox="0 0 11 12" fill="none" xmlns="http://www.w3.org/2000/svg">
<path d="M10.9996 4.18885C10.9996 4.28302 10.9439 4.38574 10.8326 4.49703L8.50017 6.7699L9.05275 9.98016C9.05704 10.0101 9.05918 10.0529 9.05918 10.1086C9.05918 10.1985 9.03669 10.2744 8.99171 10.3365C8.94674 10.3986 8.88141 10.4296 8.79574 10.4296C8.71435 10.4296 8.62868 10.4039 8.53873 10.3525L5.65375 8.83731L2.76877 10.3525C2.67453 10.4039 2.58886 10.4296 2.51175 10.4296C2.4218 10.4296 2.35433 10.3986 2.30936 10.3365C2.26438 10.2744 2.24189 10.1985 2.24189 10.1086C2.24189 10.0829 2.24617 10.0401 2.25474 9.98016L2.80732 6.7699L0.468495 4.49703C0.361406 4.38146 0.307861 4.27874 0.307861 4.18885C0.307861 4.03047 0.427801 3.93203 0.667681 3.8935L3.8932 3.42481L5.33891 0.503468C5.42029 0.327973 5.52524 0.240226 5.65375 0.240226C5.78225 0.240226 5.8872 0.327973 5.96859 0.503468L7.41429 3.42481L10.6398 3.8935C10.8797 3.93203 10.9996 4.03047 10.9996 4.18885Z" fill="#F27D0C"/>
</svg>
