<svg width="11" height="12" viewBox="0 0 11 12" fill="none" xmlns="http://www.w3.org/2000/svg">
<path d="M10.6862 4.18885C10.6862 4.28302 10.6305 4.38574 10.5191 4.49703L8.1867 6.7699L8.73928 9.98016C8.74356 10.0101 8.7457 10.0529 8.7457 10.1086C8.7457 10.1985 8.72321 10.2744 8.67824 10.3365C8.63326 10.3986 8.56793 10.4296 8.48226 10.4296C8.40088 10.4296 8.3152 10.4039 8.22525 10.3525L5.34027 8.83731L2.45529 10.3525C2.36105 10.4039 2.27538 10.4296 2.19828 10.4296C2.10832 10.4296 2.04086 10.3986 1.99588 10.3365C1.9509 10.2744 1.92841 10.1985 1.92841 10.1086C1.92841 10.0829 1.9327 10.0401 1.94126 9.98016L2.49384 6.7699L0.155018 4.49703C0.0479293 4.38146 -0.00561523 4.27874 -0.00561523 4.18885C-0.00561523 4.03047 0.114325 3.93203 0.354204 3.8935L3.57973 3.42481L5.02543 0.503468C5.10682 0.327973 5.21176 0.240226 5.34027 0.240226C5.46878 0.240226 5.57372 0.327973 5.65511 0.503468L7.10081 3.42481L10.3263 3.8935C10.5662 3.93203 10.6862 4.03047 10.6862 4.18885Z" fill="#777777"/>
</svg>
