<svg width="12" height="12" viewBox="0 0 12 12" fill="none" xmlns="http://www.w3.org/2000/svg">
<path d="M11.5214 4.18885C11.5214 4.28302 11.4658 4.38574 11.3545 4.49703L9.02381 6.7699L9.57598 9.98016C9.58026 10.0101 9.5824 10.0529 9.5824 10.1086C9.5824 10.1985 9.55993 10.2744 9.51498 10.3365C9.47004 10.3986 9.40476 10.4296 9.31916 10.4296C9.23783 10.4296 9.15222 10.4039 9.06234 10.3525L6.17952 8.83731L3.29671 10.3525C3.20254 10.4039 3.11693 10.4296 3.03989 10.4296C2.95 10.4296 2.88258 10.3986 2.83764 10.3365C2.7927 10.2744 2.77022 10.1985 2.77022 10.1086C2.77022 10.0829 2.7745 10.0401 2.78306 9.98016L3.33523 6.7699L0.99816 4.49703C0.891151 4.38146 0.837646 4.27874 0.837646 4.18885C0.837646 4.03047 0.957496 3.93203 1.1972 3.8935L4.4203 3.42481L5.86492 0.503468C5.94624 0.327973 6.05111 0.240226 6.17952 0.240226C6.30793 0.240226 6.4128 0.327973 6.49413 0.503468L7.93875 3.42481L11.1618 3.8935C11.4015 3.93203 11.5214 4.03047 11.5214 4.18885Z" fill="#777777"/>
</svg>
