<svg width="12" height="12" viewBox="0 0 12 12" fill="none" xmlns="http://www.w3.org/2000/svg">
<path d="M11.4996 4.18876C11.4996 4.28292 11.4439 4.38565 11.3326 4.49694L9.00017 6.76981L9.55275 9.98007C9.55704 10.01 9.55918 10.0528 9.55918 10.1085C9.55918 10.1984 9.53669 10.2743 9.49171 10.3364C9.44674 10.3985 9.38141 10.4295 9.29574 10.4295C9.21435 10.4295 9.12868 10.4038 9.03873 10.3525L6.15375 8.83721L3.26877 10.3525C3.17453 10.4038 3.08886 10.4295 3.01175 10.4295C2.9218 10.4295 2.85433 10.3985 2.80936 10.3364C2.76438 10.2743 2.74189 10.1984 2.74189 10.1085C2.74189 10.0828 2.74617 10.04 2.75474 9.98007L3.30732 6.76981L0.968495 4.49694C0.861406 4.38137 0.807861 4.27864 0.807861 4.18876C0.807861 4.03038 0.927801 3.93194 1.16768 3.89341L4.3932 3.42471L5.83891 0.503376C5.92029 0.327882 6.02524 0.240134 6.15375 0.240134C6.28225 0.240134 6.3872 0.327882 6.46859 0.503376L7.91429 3.42471L11.1398 3.89341C11.3797 3.93194 11.4996 4.03038 11.4996 4.18876Z" fill="#F27D0C"/>
</svg>
