<svg width="12" height="12" viewBox="0 0 12 12" fill="none" xmlns="http://www.w3.org/2000/svg">
<path d="M11.2714 4.18885C11.2714 4.28302 11.2158 4.38574 11.1045 4.49703L8.77381 6.7699L9.32598 9.98016C9.33026 10.0101 9.3324 10.0529 9.3324 10.1086C9.3324 10.1985 9.30993 10.2744 9.26498 10.3365C9.22004 10.3986 9.15476 10.4296 9.06916 10.4296C8.98783 10.4296 8.90222 10.4039 8.81234 10.3525L5.92952 8.83731L3.04671 10.3525C2.95254 10.4039 2.86693 10.4296 2.78989 10.4296C2.7 10.4296 2.63258 10.3986 2.58764 10.3365C2.5427 10.2744 2.52022 10.1985 2.52022 10.1086C2.52022 10.0829 2.5245 10.0401 2.53306 9.98016L3.08523 6.7699L0.74816 4.49703C0.641151 4.38146 0.587646 4.27874 0.587646 4.18885C0.587646 4.03047 0.707496 3.93203 0.947196 3.8935L4.1703 3.42481L5.61492 0.503468C5.69624 0.327973 5.80111 0.240226 5.92952 0.240226C6.05793 0.240226 6.1628 0.327973 6.24413 0.503468L7.68875 3.42481L10.9118 3.8935C11.1515 3.93203 11.2714 4.03047 11.2714 4.18885Z" fill="#777777"/>
</svg>
