<svg width="11" height="12" viewBox="0 0 11 12" fill="none" xmlns="http://www.w3.org/2000/svg">
<path d="M10.6862 4.18876C10.6862 4.28292 10.6305 4.38565 10.5191 4.49694L8.1867 6.76981L8.73928 9.98007C8.74356 10.01 8.7457 10.0528 8.7457 10.1085C8.7457 10.1984 8.72321 10.2743 8.67824 10.3364C8.63326 10.3985 8.56793 10.4295 8.48226 10.4295C8.40088 10.4295 8.3152 10.4038 8.22525 10.3525L5.34027 8.83721L2.45529 10.3525C2.36105 10.4038 2.27538 10.4295 2.19828 10.4295C2.10832 10.4295 2.04086 10.3985 1.99588 10.3364C1.9509 10.2743 1.92841 10.1984 1.92841 10.1085C1.92841 10.0828 1.9327 10.04 1.94126 9.98007L2.49384 6.76981L0.155018 4.49694C0.0479293 4.38137 -0.00561523 4.27864 -0.00561523 4.18876C-0.00561523 4.03038 0.114325 3.93194 0.354204 3.89341L3.57973 3.42471L5.02543 0.503376C5.10682 0.327882 5.21176 0.240134 5.34027 0.240134C5.46878 0.240134 5.57372 0.327882 5.65511 0.503376L7.10081 3.42471L10.3263 3.89341C10.5662 3.93194 10.6862 4.03038 10.6862 4.18876Z" fill="#777777"/>
</svg>
