<svg width="12" height="14" viewBox="0 0 12 14" fill="none" xmlns="http://www.w3.org/2000/svg">
<path d="M7.10982 6.71412C7.19268 6.79698 7.23412 6.89227 7.23412 7C7.23412 7.10772 7.19268 7.20302 7.10982 7.28588L1.31755 13.0781C1.23469 13.161 1.13939 13.2024 1.03167 13.2024C0.923945 13.2024 0.82865 13.161 0.745785 13.0781L0.124298 12.4567C0.0414325 12.3738 0 12.2785 0 12.1708C0 12.0631 0.0414325 11.9678 0.124298 11.8849L5.00919 7L0.124298 2.11511C0.0414325 2.03224 0 1.93695 0 1.82922C0 1.7215 0.0414325 1.6262 0.124298 1.54334L0.745785 0.92185C0.82865 0.838985 0.923945 0.797553 1.03167 0.797553C1.13939 0.797553 1.23469 0.838985 1.31755 0.92185L7.10982 6.71412ZM11.8828 6.71412C11.9657 6.79698 12.0071 6.89227 12.0071 7C12.0071 7.10772 11.9657 7.20302 11.8828 7.28588L6.09058 13.0781C6.00771 13.161 5.91242 13.2024 5.80469 13.2024C5.69697 13.2024 5.60167 13.161 5.51881 13.0781L4.89732 12.4567C4.81446 12.3738 4.77302 12.2785 4.77302 12.1708C4.77302 12.0631 4.81446 11.9678 4.89732 11.8849L9.78221 7L4.89732 2.11511C4.81446 2.03224 4.77302 1.93695 4.77302 1.82922C4.77302 1.7215 4.81446 1.6262 4.89732 1.54334L5.51881 0.92185C5.60167 0.838985 5.69697 0.797553 5.80469 0.797553C5.91242 0.797553 6.00771 0.838985 6.09058 0.92185L11.8828 6.71412Z" fill="#777777"/>
</svg>
