<svg width="12" height="14" viewBox="0 0 12 14" fill="none" xmlns="http://www.w3.org/2000/svg">
<path d="M7.10982 6.71406C7.19268 6.79693 7.23412 6.89222 7.23412 6.99995C7.23412 7.10767 7.19268 7.20297 7.10982 7.28583L1.31755 13.0781C1.23469 13.161 1.13939 13.2024 1.03167 13.2024C0.923945 13.2024 0.82865 13.161 0.745785 13.0781L0.124298 12.4566C0.0414325 12.3737 0 12.2784 0 12.1707C0 12.063 0.0414325 11.9677 0.124298 11.8848L5.00919 6.99995L0.124298 2.11505C0.0414325 2.03219 0 1.93689 0 1.82917C0 1.72145 0.0414325 1.62615 0.124298 1.54328L0.745785 0.921797C0.82865 0.838932 0.923945 0.7975 1.03167 0.7975C1.13939 0.7975 1.23469 0.838932 1.31755 0.921797L7.10982 6.71406ZM11.8828 6.71406C11.9657 6.79693 12.0071 6.89222 12.0071 6.99995C12.0071 7.10767 11.9657 7.20297 11.8828 7.28583L6.09058 13.0781C6.00771 13.161 5.91242 13.2024 5.80469 13.2024C5.69697 13.2024 5.60167 13.161 5.51881 13.0781L4.89732 12.4566C4.81446 12.3737 4.77302 12.2784 4.77302 12.1707C4.77302 12.063 4.81446 11.9677 4.89732 11.8848L9.78221 6.99995L4.89732 2.11505C4.81446 2.03219 4.77302 1.93689 4.77302 1.82917C4.77302 1.72145 4.81446 1.62615 4.89732 1.54328L5.51881 0.921797C5.60167 0.838932 5.69697 0.7975 5.80469 0.7975C5.91242 0.7975 6.00771 0.838932 6.09058 0.921797L11.8828 6.71406Z" fill="#777777"/>
</svg>
